<?xml version="1.0" encoding="utf-8"?>
<!-- Generator: Adobe Illustrator 19.2.0, SVG Export Plug-In . SVG Version: 6.00 Build 0)  -->
<svg version="1.1" id="Capa_1" xmlns="http://www.w3.org/2000/svg" xmlns:xlink="http://www.w3.org/1999/xlink" x="0px" y="0px"
	 viewBox="0 0 49.5 49.5" style="enable-background:new 0 0 49.5 49.5;" xml:space="preserve">
<style type="text/css">
	.st0{fill:#FFFFFF;}
	.st1{fill:#FFC627;}
</style>
<g>
	<g>
		<polygon class="st0" points="37.2,12.3 29.8,12.3 19.7,12.3 19.7,19.7 29.8,19.7 37.2,19.7 42,19.7 42,29.8 37.2,29.8 37.2,37.2 
			49.5,37.2 49.5,12.3 		"/>
		<polygon class="st0" points="12.2,29.8 7.4,29.8 7.4,19.7 12.2,19.7 12.2,12.3 0,12.3 0,37.2 12.2,37.2 19.6,37.2 29.7,37.2 
			29.7,29.8 19.6,29.8 		"/>
	</g>
	<g>
		<polygon class="st1" points="29.7,29.8 29.7,37.2 29.7,42.1 19.7,42.1 19.7,37.2 12.4,37.2 12.4,49.5 37,49.5 37,37.2 37,29.8 
			37,19.7 29.7,19.7 		"/>
		<polygon class="st1" points="12.4,0 12.4,12.3 12.4,19.7 12.4,29.8 19.7,29.8 19.7,19.7 19.7,12.3 19.7,7.4 29.7,7.4 29.7,12.3 
			37,12.3 37,0 		"/>
	</g>
</g>
</svg>
