<?xml version="1.0" encoding="utf-8"?>
<!-- Generator: Adobe Illustrator 19.2.0, SVG Export Plug-In . SVG Version: 6.00 Build 0)  -->
<svg version="1.1" id="Capa_1" xmlns="http://www.w3.org/2000/svg" xmlns:xlink="http://www.w3.org/1999/xlink" x="0px" y="0px"
	 viewBox="0 0 289.7 50.4" style="enable-background:new 0 0 289.7 50.4;" xml:space="preserve">
<style type="text/css">
	.st0{fill:#FFFFFF;}
	.st1{fill:#FFC627;}
</style>
<g>
	<polygon class="st0" points="80.1,34.7 63.3,10.4 59,10.4 59,39.9 63.3,39.9 63.3,17.7 78,39.9 82.2,39.9 96.9,17.7 96.9,39.9 
		101.2,39.9 101.2,10.4 96.9,10.4 	"/>
	<g>
		<g>
			<polygon class="st0" points="38,12.4 30.5,12.4 20.2,12.4 20.2,20 30.5,20 38,20 43,20 43,30.3 38,30.3 38,37.9 50.6,37.9 
				50.6,12.4 			"/>
			<polygon class="st0" points="12.5,30.3 7.6,30.3 7.6,20 12.5,20 12.5,12.4 0,12.4 0,37.9 12.5,37.9 20.1,37.9 30.4,37.9 
				30.4,30.3 20.1,30.3 			"/>
		</g>
		<g>
			<polygon class="st1" points="30.4,30.3 30.4,37.9 30.4,42.8 20.2,42.8 20.2,37.9 12.7,37.9 12.7,50.4 37.9,50.4 37.9,37.9 
				37.9,30.3 37.9,20 30.4,20 			"/>
			<polygon class="st1" points="12.7,-0.2 12.7,12.4 12.7,20 12.7,30.3 20.2,30.3 20.2,20 20.2,12.4 20.2,7.4 30.4,7.4 30.4,12.4 
				37.9,12.4 37.9,-0.2 			"/>
		</g>
	</g>
	<rect x="143.4" y="10.4" class="st0" width="4.2" height="29.5"/>
	<path class="st0" d="M124.4,10.4h-4.3h-0.4l-14.9,29.5h4.7l4.3-8.5h16.9l4.3,8.5h4.7l-14.9-29.5H124.4z M116,27l6.3-12.4l6.3,12.4
		H116z"/>
	<polygon class="st0" points="202.4,10.4 189.7,10.4 189.7,14.6 202.4,14.6 202.4,39.9 206.6,39.9 206.6,14.6 219.2,14.6 
		219.2,10.4 206.7,10.4 	"/>
	<polygon class="st0" points="224.8,10.4 223.4,10.4 223.4,39.9 224.8,39.9 227.7,39.9 253,39.9 253,35.6 227.7,35.6 227.7,27.2 
		250.8,27.3 250.8,23 227.7,22.9 227.7,14.7 253,14.7 253,10.4 227.7,10.4 	"/>
	<path class="st0" d="M275.4,27.2c6.3,0,9.9-1.9,9.9-1.9c2.9-1.5,4.4-3.7,4.4-6.6c0-5.5-4.8-8.3-14.1-8.3h-14.2h-2.7h-1.5v29.5h4.2
		V27.2L288,39.9l1.8-3.9l-18.1-8.7H275.4z M261.4,23v-8.4h14.4c6,0.1,9.6,1.3,9.6,4.3c0,4.1-7.3,4.1-10.2,4.1H261.4z"/>
	<polygon class="st0" points="181.4,34.1 155.9,10.4 151.8,10.4 151.8,39.9 155.9,39.9 155.9,16.1 181.4,39.9 185.5,39.9 
		185.5,10.4 181.4,10.4 	"/>
</g>
</svg>
