<?xml version="1.0" encoding="utf-8"?>
<!-- Generator: Adobe Illustrator 19.2.0, SVG Export Plug-In . SVG Version: 6.00 Build 0)  -->
<svg version="1.1" id="Capa_1" xmlns="http://www.w3.org/2000/svg" xmlns:xlink="http://www.w3.org/1999/xlink" x="0px" y="0px"
	 viewBox="0 0 289.7 50.4" style="enable-background:new 0 0 289.7 50.4;" xml:space="preserve">
<style type="text/css">
	.st0{fill:#1E428A;}
	.st1{fill:#FFC627;}
</style>
<g>
	<g>
		<g>
			<polygon class="st0" points="37.4,12.8 30,12.8 19.9,12.8 19.9,20.2 30,20.2 37.4,20.2 42.3,20.2 42.3,30.2 37.4,30.2 37.4,37.7 
				49.7,37.7 49.7,12.8 			"/>
			<polygon class="st0" points="12.5,30.2 7.6,30.2 7.6,20.2 12.5,20.2 12.5,12.8 0.2,12.8 0.2,37.7 12.5,37.7 19.9,37.7 29.9,37.7 
				29.9,30.2 19.9,30.2 			"/>
		</g>
		<g>
			<polygon class="st1" points="29.9,30.2 29.9,37.7 29.9,42.5 19.9,42.5 19.9,37.7 12.6,37.7 12.6,50 37.3,50 37.3,37.7 37.3,30.2 
				37.3,20.2 29.9,20.2 			"/>
			<polygon class="st1" points="12.6,0.5 12.6,12.8 12.6,20.2 12.6,30.2 19.9,30.2 19.9,20.2 19.9,12.8 19.9,7.9 29.9,7.9 
				29.9,12.8 37.3,12.8 37.3,0.5 			"/>
		</g>
	</g>
	<polygon class="st0" points="78.5,34.6 62.1,10.8 57.9,10.8 57.9,39.6 62.1,39.6 62.1,17.9 76.5,39.6 80.6,39.6 95,17.9 95,39.6 
		99.1,39.6 99.1,10.8 95,10.8 	"/>
	<rect x="140.4" y="10.8" class="st0" width="4.1" height="28.8"/>
	<path class="st0" d="M121.8,10.8h-4.2h-0.4l-14.6,28.8h4.6l4.2-8.3H128l4.2,8.3h4.6l-14.6-28.8H121.8z M113.6,27.1l6.2-12.2
		l6.2,12.2H113.6z"/>
	<polygon class="st0" points="198.1,10.8 185.7,10.8 185.7,14.9 198.1,14.9 198.1,39.6 202.2,39.6 202.2,14.9 214.6,14.9 
		214.6,10.8 202.3,10.8 	"/>
	<polygon class="st0" points="220,10.8 218.7,10.8 218.7,39.6 220,39.6 222.8,39.6 247.5,39.6 247.5,35.4 222.8,35.4 222.8,27.3 
		245.5,27.3 245.5,23.1 222.8,23.1 222.8,15 247.5,15 247.5,10.8 222.8,10.8 	"/>
	<path class="st0" d="M269.4,27.3c6.2,0,9.7-1.8,9.7-1.8c2.9-1.4,4.3-3.6,4.3-6.5c0-5.4-4.7-8.1-13.8-8.1h-13.9h-2.6h-1.5v28.8h4.1
		V27.3l26,12.3l1.7-3.8l-17.7-8.5H269.4z M255.8,23.2v-8.2h14.1c5.9,0.1,9.4,1.3,9.4,4.2c0,4-7.1,4-10,4H255.8z"/>
	<polygon class="st0" points="177.5,34 152.7,10.8 148.6,10.8 148.6,39.6 152.7,39.6 152.7,16.4 177.5,39.6 181.6,39.6 181.6,10.8 
		177.5,10.8 	"/>
</g>
</svg>
