<svg id="Capa_1" data-name="Capa 1" xmlns="http://www.w3.org/2000/svg" viewBox="0 0 162.11 32.74"><defs><style>.cls-1{fill:#004996;}.cls-1,.cls-2{fill-rule:evenodd;}.cls-2{fill:#fff;}</style></defs><title>logo-tramontina</title><path class="cls-1" d="M160.83,35.67a4.37,4.37,0,0,0,4.37-4.37V7.3a4.36,4.36,0,0,0-4.37-4.36H7.45A4.36,4.36,0,0,0,3.09,7.3v24a4.37,4.37,0,0,0,4.37,4.37H160.83Z" transform="translate(-3.09 -2.93)"/><polygon class="cls-2" points="16.57 22.97 12.76 22.97 12.76 11.54 9.61 11.54 9.61 8.31 19.72 8.31 19.72 11.54 16.57 11.54 16.57 22.97 16.57 22.97"/><path class="cls-2" d="M36.76,25.9H32l-3.6-5.64h0V25.9H24.57V11.24h5.69c2.9,0,5.09,1.38,5.09,4.51a3.94,3.94,0,0,1-3.21,4.14l4.61,6h0Zm-8.38-8.09h0.37c1.24,0,2.64-.23,2.64-1.83s-1.4-1.83-2.64-1.83H28.38v3.65h0Z" transform="translate(-3.09 -2.93)"/><path class="cls-2" d="M42.3,23.35l-1,2.55h-4l5.64-14.66H47L52.56,25.9H48.5l-1-2.55H42.3ZM45,15.77h0l-1.57,4.66h3.17L45,15.77h0Z" transform="translate(-3.09 -2.93)"/><polygon class="cls-2" points="52.65 8.31 56.4 8.31 59.38 16.14 62.53 8.31 66.32 8.31 68.53 22.97 64.72 22.97 63.65 14.53 63.62 14.53 60.1 22.97 58.58 22.97 55.22 14.53 55.18 14.53 53.96 22.97 50.16 22.97 52.65 8.31 52.65 8.31"/><path class="cls-2" d="M88.59,18.3c0,4.74-3.3,8.09-7.86,8.09S72.87,23,72.87,18.3a7.87,7.87,0,0,1,15.72,0h0Zm-11.87,0a4,4,0,1,0,8,0,4,4,0,0,0-8,0h0Z" transform="translate(-3.09 -2.93)"/><polygon class="cls-2" points="87.63 8.31 91.44 8.31 98.42 17.27 98.46 17.27 98.46 8.31 102.27 8.31 102.27 22.97 98.46 22.97 91.48 13.99 91.44 13.99 91.44 22.97 87.63 22.97 87.63 8.31 87.63 8.31"/><polygon class="cls-2" points="110.97 22.97 107.16 22.97 107.16 11.54 104.01 11.54 104.01 8.31 114.12 8.31 114.12 11.54 110.97 11.54 110.97 22.97 110.97 22.97"/><polygon class="cls-2" points="119.69 22.97 115.89 22.97 115.89 8.31 119.69 8.31 119.69 22.97 119.69 22.97"/><polygon class="cls-2" points="122.18 8.31 125.99 8.31 132.97 17.27 133.01 17.27 133.01 8.31 136.82 8.31 136.82 22.97 133.01 22.97 126.03 13.99 125.99 13.99 125.99 22.97 122.18 22.97 122.18 8.31 122.18 8.31"/><path class="cls-2" d="M145.73,23.35l-1,2.55h-4l5.64-14.66h4.16L156,25.9h-4.06l-1-2.55h-5.25Zm2.66-7.58h0l-1.57,4.66H150l-1.55-4.66h0Z" transform="translate(-3.09 -2.93)"/></svg>