<?xml version="1.0" encoding="utf-8"?>
<!-- Generator: Adobe Illustrator 19.2.0, SVG Export Plug-In . SVG Version: 6.00 Build 0)  -->
<svg version="1.1" id="Capa_1" xmlns="http://www.w3.org/2000/svg" xmlns:xlink="http://www.w3.org/1999/xlink" x="0px" y="0px"
	 viewBox="0 0 140.5 62.5" style="enable-background:new 0 0 140.5 62.5;" xml:space="preserve">
<style type="text/css">
	.st0{fill:#295292;}
	.st1{fill:#F29233;}
	.st2{fill:#FFFFFE;}
</style>
<g id="CZ6y6w.tif">
	<g>
		<path class="st0" d="M12.6,47.6c-0.5-1.3-1-2.6-1.3-3.9c-0.3-1.3-0.5-2.7-0.5-4.1c-0.1-4.9,1.3-9.3,3.9-13.3
			c1.9-3,4.4-5.5,7.1-7.8c2.9-2.4,6.1-4.4,9.4-6.2c5.2-2.7,10.8-4.6,16.5-6c2.7-0.7,5.5-1.2,8.3-1.6c2-0.3,4-0.5,5.9-0.7
			c1.9-0.2,3.9-0.3,5.8-0.3c1.6,0,3.2,0,4.8,0c2.3,0,4.6,0.2,6.8,0.4C86,4.6,92.3,5.8,98.5,7.8c3.5,1.1,6.9,2.5,10.1,4.1
			c3.9,2,7.6,4.3,10.9,7.1c3,2.6,5.6,5.6,7.5,9.2c1.2,2.3,2.1,4.7,2.5,7.3c0.6,4,0.2,7.8-1.3,11.6c-0.1,0.2-0.1,0.3-0.2,0.5
			c-0.1,0-0.2,0-0.3,0c-38.3,0-76.6,0-114.9,0C12.8,47.6,12.7,47.6,12.6,47.6z M57.3,41c1.5,0,3,0,4.5,0c0.2,0,0.2,0,0.2-0.2
			c0-1,0-2,0-3c0-1.9,0-3.7,0-5.6c0-1,0-2,0-3c0-0.6,0-1.2-0.1-1.8c-0.3-1.8-1.5-2.8-3.3-3c-0.5,0-1,0-1.5,0c-2.5,0-4.9,0-7.4,0
			c-0.2,0-0.2,0.1-0.2,0.2c0,1.2,0,2.3,0,3.5c0,0.2,0,0.2,0.2,0.2c2.3,0,4.5,0,6.8,0c0.1,0,0.2,0,0.3,0c0.5,0.1,0.8,0.4,0.9,0.8
			c0,0.4,0.1,0.8,0.1,1.2c0,1.5,0,2.9,0,4.4c0,0.7,0,1.5,0,2.2c0,0.1,0,0.2-0.1,0.2c-1.4,0-2.8,0-4.2,0c-0.9,0-1.3-0.5-1.2-1.4
			c0-0.3,0.2-0.6,0.5-0.7c0.2-0.1,0.5-0.1,0.7-0.1c1,0,2.1,0,3.1,0c0.2,0,0.2,0,0.2-0.2c0-1.3,0-2.5,0-3.8c0-0.2-0.1-0.2-0.2-0.2
			c-1.3,0-2.6,0-3.9,0c-1.4,0-2.5,0.6-3.4,1.6c-1.4,1.8-1.5,4.6-0.2,6.5c0.9,1.4,2.3,2.2,4,2.2C54.6,41,55.9,41,57.3,41z M92,32.6
			c0-1.9,0-3.7,0-5.6c0-0.9,0-1.8,0-2.7c0-0.1,0-0.2-0.2-0.2c-1.3,0-2.6,0-3.8,0c-0.1,0-0.2,0-0.2,0.1c0,0.2,0,0.4,0,0.6
			c0,4.1,0,8.1,0,12.2c0,0.2,0,0.2-0.2,0.2c-1.1,0-2.3,0-3.4,0c-0.9,0-1.8-0.4-1.8-1.8c0-3.7,0-7.4,0-11.1c0-0.2,0-0.2-0.2-0.2
			c-1.3,0-2.6,0-3.9,0c-0.2,0-0.2,0.1-0.2,0.2c0,3.8,0,7.7,0,11.5c0,0.7,0,1.4,0.2,2.1c0.2,0.8,0.4,1.5,1,2.1
			c0.7,0.7,1.6,0.9,2.5,0.9c3.3,0,6.7,0,10,0c0.2,0,0.2,0,0.2-0.2C92,38.1,92,35.4,92,32.6z M68.2,41.1c0.7,0,1.4,0,2.1,0
			c1,0,2,0,2.9,0c2.1-0.2,3.6-1.6,3.9-3.6c0.2-1.3,0.2-2.7,0-4c-0.1-1.3-0.8-2-2.1-2.3c-0.6-0.1-1.3-0.2-1.9-0.1
			c-1.3,0.1-2.6,0-3.8,0c-0.7,0-1.2-0.3-1.5-0.9c-0.3-0.7,0-1.4,0.7-1.6c0.3-0.1,0.7-0.1,1-0.1c2.1,0,4.2,0,6.3,0.1
			c0.2,0,0.2-0.1,0.2-0.2c0-1.2,0-2.5,0-3.7c0-0.2,0-0.2-0.2-0.2c-1.5,0-3,0-4.5,0c-0.6,0-1.3,0-1.9,0c-0.6,0-1.2,0-1.8,0.1
			c-1.7,0.3-3,1.1-3.8,2.6c-0.6,1.2-0.7,2.4-0.4,3.7c0.2,1.1,0.7,2,1.5,2.7c1,0.9,2.2,1.3,3.5,1.4c1.1,0,2.3,0,3.4,0
			c0.8,0,1.2,0.4,1.3,1.2c0.1,0.6-0.3,1.1-1,1.3c-0.4,0.1-0.7,0.1-1.1,0.1c-2.5,0-5.1,0-7.6,0c-0.2,0-0.2,0-0.2,0.2
			c0,1.2,0,2.3,0,3.5c0,0.2,0,0.2,0.2,0.2C65.1,41.1,66.6,41.1,68.2,41.1z M23,32.8c0,2.7,0,5.4,0,8.1c0,0.2,0,0.3,0.3,0.3
			c1.2,0,2.3,0,3.5,0c0.2,0,0.3,0,0.3-0.3c0-4.1,0-8.3,0-12.4c0-0.1,0-0.1,0-0.2c0-0.1,0-0.2,0.1-0.2c1,0,2.1,0,3.1,0
			c1.3,0,2.1,1,2.2,2.2c0,1.2-0.9,2.3-2.1,2.4c-0.7,0.1-1.4,0-2,0c-0.2,0-0.2,0-0.2,0.2c0,1.1,0,2.2,0,3.3c0,0.2,0.1,0.2,0.2,0.2
			c0.7,0,1.4,0,2.1,0c0.6,0,1.2-0.1,1.8-0.3c3.2-1.1,4.9-4.6,3.8-7.9c-0.9-2.4-3.2-4.1-5.8-4.1c-2.3,0-4.6,0-7,0
			c-0.4,0-0.4,0-0.4,0.4C23,27.5,23,30.2,23,32.8z M99.6,41.1c0.9,0,1.6,0,2.4,0c0.2,0,0.2-0.1,0.2-0.2c0-1.2,0-2.3,0-3.5
			c0-0.2,0-0.2-0.2-0.2c-0.8,0-1.6,0-2.4,0c-0.8,0-1.3-0.5-1.3-1.3c0-1.2,0-2.4,0-3.6c0-0.2,0-0.2,0.2-0.2c1.1,0,2.2,0,3.3,0
			c0.2,0,0.2,0,0.2-0.2c0-1.2,0-2.3,0-3.5c0-0.2,0-0.2-0.2-0.2c-1.1,0-2.2,0-3.3,0c-0.2,0-0.2,0-0.2-0.2c0-1.1,0-2.1,0-3.2
			c0-0.2,0-0.3-0.2-0.3c-1.3,0-2.6,0-3.8,0c-0.2,0-0.3,0.1-0.3,0.3c0,3.8,0,7.6,0,11.4c0,0.6,0,1.2,0,1.9c0.2,1.8,1.4,3,3.2,3.1
			C98,41.1,98.9,41.1,99.6,41.1z M38.2,30.3c0,1.2,0,2.5,0,3.7c0,0.8,0,1.7,0,2.5c0.2,2.7,2.2,4.5,4.9,4.5c1.2,0,2.3,0,3.5,0
			c0.2,0,0.2,0,0.2-0.2c0-1.1-0.1-2.2-0.1-3.3c0-0.2-0.1-0.2-0.2-0.2c-0.8,0-1.6,0-2.4,0c-0.9,0-1.4-0.6-1.4-1.5c0-3.8,0-7.6,0-11.4
			c0-0.2,0-0.3-0.3-0.3c-1.3,0-2.6,0-3.9,0c-0.2,0-0.2,0.1-0.2,0.3C38.2,26.4,38.2,28.4,38.2,30.3z M110.4,30.8c0,1.9,0,3.7,0,5.6
			c0,0.6,0,1.3,0.2,1.9c0.1,0.7,0.4,1.3,0.9,1.8c0.6,0.6,1.4,0.8,2.3,0.8c1.6,0,3.1,0,4.7,0c0.2,0,0.2,0,0.2-0.2c0-1.1,0-2.3,0-3.4
			c0-0.2,0-0.2-0.2-0.2c-0.8,0-1.5,0-2.3,0c-0.8,0-1.3-0.4-1.4-1c0-0.2,0-0.4,0-0.6c0-3.6,0-7.3,0-10.9c0-0.2,0-0.2-0.2-0.2
			c-1.3,0-2.6,0-3.9,0c-0.2,0-0.2,0-0.2,0.2C110.4,26.7,110.4,28.7,110.4,30.8z M103.7,32.6c0,2.8,0,5.5,0,8.3c0,0.2,0,0.2,0.2,0.2
			c1.3,0,2.7,0,4,0c0.2,0,0.2,0,0.2-0.2c0-5.5,0-11,0-16.5c0-0.2,0-0.2-0.2-0.2c-1.3,0-2.7,0-4,0c-0.2,0-0.3,0.1-0.3,0.3
			C103.7,27.1,103.7,29.9,103.7,32.6z M109,19.6c0-1.6-1.3-3-3-3c-1.8,0-3.2,1.3-3.2,2.9c0,1.8,1.3,3.2,3.1,3.2
			C107.7,22.7,109,21.3,109,19.6z M90.6,19.1c-0.1,0-0.2,0-0.3,0c-1.3,0-2.5,0-3.8,0c-0.2,0-0.3,0-0.4,0.2c-1,1.5-2,2.9-3,4.4
			c0,0-0.1,0.1-0.1,0.2c0,0,0.1,0,0.1,0c1.4,0,2.8,0,4.2,0c0.1,0,0.2-0.1,0.3-0.2c0.6-0.9,1.2-1.8,1.8-2.7
			C89.8,20.3,90.2,19.7,90.6,19.1z M115.5,23c0,0.7,0.5,1.2,1.2,1.2c0.7,0,1.2-0.5,1.2-1.2c0-0.7-0.5-1.2-1.1-1.2
			C116,21.9,115.5,22.4,115.5,23z"/>
		<path class="st1" d="M12.6,47.6c0.1,0,0.2,0,0.3,0c38.3,0,76.6,0,114.9,0c0.1,0,0.2,0,0.3,0c0.1,0,0.2,0,0.3,0c2.1,0,4.1,0,6.2,0
			c0.2,0,0.2,0,0.2,0.2c0,2.9,0,5.7,0,8.6c0,0.2,0,0.3-0.2,0.2c-0.1,0-0.1,0-0.2,0c-42.9,0-85.8,0-128.7,0c-0.3,0-0.3,0-0.3-0.3
			c0-2.8,0-5.7,0-8.5c0-0.2,0-0.2,0.2-0.2c2.2,0,4.5,0,6.7,0C12.5,47.6,12.6,47.6,12.6,47.6z"/>
		<path class="st2" d="M57.3,41c-1.4,0-2.7,0-4.1,0c-1.7,0-3.1-0.7-4-2.2c-1.2-1.9-1.1-4.8,0.2-6.5c0.9-1.1,2-1.6,3.4-1.6
			c1.3,0,2.6,0,3.9,0c0.2,0,0.2,0,0.2,0.2c0,1.3,0,2.5,0,3.8c0,0.2,0,0.2-0.2,0.2c-1,0-2.1,0-3.1,0c-0.2,0-0.5,0-0.7,0.1
			c-0.3,0.1-0.5,0.3-0.5,0.7c-0.1,0.9,0.3,1.4,1.2,1.4c1.4,0,2.8,0,4.2,0c0.2,0,0.2-0.1,0.1-0.2c0-0.7,0-1.5,0-2.2
			c0-1.5,0-2.9,0-4.4c0-0.4,0-0.8-0.1-1.2c0-0.4-0.4-0.7-0.9-0.8c-0.1,0-0.2,0-0.3,0c-2.3,0-4.5,0-6.8,0c-0.2,0-0.2,0-0.2-0.2
			c0-1.2,0-2.3,0-3.5c0-0.2,0-0.2,0.2-0.2c2.5,0,4.9,0,7.4,0c0.5,0,1,0,1.5,0c1.8,0.2,2.9,1.2,3.3,3c0.1,0.6,0.1,1.2,0.1,1.8
			c0,1,0,2,0,3c0,1.9,0,3.7,0,5.6c0,1,0,2,0,3c0,0.2-0.1,0.2-0.2,0.2C60.3,41,58.8,41,57.3,41z M59.5,32.6c0-1.2,0-2.5,0-3.7
			c0-0.6-0.1-1.1-0.6-1.5c-0.4-0.3-0.8-0.4-1.3-0.4c-0.2,0-0.3,0.1-0.3,0.3c0,0.2,0.1,0.2,0.3,0.2c0,0,0.1,0,0.1,0
			c0.6,0,0.9,0.3,1,0.9c0.1,0.3,0.1,0.7,0.1,1c0,2.2,0,4.4,0,6.6c0,0.3,0,0.6-0.1,0.9c-0.1,0.5-0.4,0.8-0.8,0.9c-0.1,0-0.2,0-0.3,0
			c-0.2,0-0.3,0.1-0.3,0.2c0,0.2,0.1,0.2,0.3,0.3c0.7,0.1,1.5-0.3,1.7-1c0.1-0.3,0.2-0.7,0.2-1.1C59.5,35,59.5,33.8,59.5,32.6z
			 M49.3,35.4c0,0.5,0,0.9,0.1,1.3c0.4,1.7,1.5,2.7,3,3.3c0.2,0.1,0.4,0,0.5-0.2c0.1-0.2-0.1-0.3-0.3-0.3c-0.8-0.3-1.5-0.8-2.1-1.5
			c-0.7-1-0.9-2.1-0.7-3.3c0.2-1.2,0.7-2.2,1.8-2.8c0.1-0.1,0.2-0.2,0.1-0.4c-0.1-0.2-0.2-0.2-0.4-0.1c-0.3,0.2-0.6,0.3-0.9,0.6
			C49.7,33,49.3,34.2,49.3,35.4z M51.1,26.2C51.1,26.2,51.1,26.2,51.1,26.2c0-0.4,0-0.7,0-1.1c0-0.2-0.1-0.4-0.3-0.4
			c-0.2,0-0.3,0.1-0.3,0.4c0,0.7,0,1.5,0,2.2c0,0.2,0.1,0.4,0.3,0.4c0.2,0,0.3-0.1,0.3-0.4C51.1,27,51.1,26.6,51.1,26.2z"/>
		<path class="st2" d="M92,32.6c0,2.7,0,5.5,0,8.2c0,0.2-0.1,0.2-0.2,0.2c-3.3,0-6.7,0-10,0c-0.9,0-1.8-0.2-2.5-0.9
			c-0.6-0.6-0.9-1.3-1-2.1c-0.1-0.7-0.2-1.4-0.2-2.1c0-3.8,0-7.7,0-11.5c0-0.2,0-0.2,0.2-0.2c1.3,0,2.6,0,3.9,0c0.2,0,0.2,0,0.2,0.2
			c0,3.7,0,7.4,0,11.1c0,1.3,0.9,1.8,1.8,1.8c1.1,0,2.3,0,3.4,0c0.2,0,0.2,0,0.2-0.2c0-4.1,0-8.1,0-12.2c0-0.2,0-0.4,0-0.6
			c0-0.1,0-0.1,0.2-0.1c1.3,0,2.6,0,3.8,0c0.2,0,0.2,0.1,0.2,0.2c0,0.9,0,1.8,0,2.7C92,28.9,92,30.8,92,32.6z M91.5,32.5
			c0-1,0-2,0-3c0-1.4,0-2.9,0-4.3c0-0.2-0.1-0.4-0.3-0.4c-0.2,0-0.3,0.1-0.3,0.4c0,0,0,0.1,0,0.1c0,4.8,0,9.6,0,14.4
			c0,0.1,0,0.2,0,0.3c0,0.2,0.2,0.2,0.3,0.2c0.2,0,0.2-0.1,0.3-0.3c0-0.1,0-0.1,0-0.2C91.5,37.3,91.5,34.9,91.5,32.5z M81.8,25.7
			C81.8,25.7,81.9,25.7,81.8,25.7c0-0.2,0-0.3,0-0.5c0-0.3-0.1-0.4-0.3-0.4c-0.2,0-0.3,0.1-0.3,0.4c0,0.6,0,1.2,0,1.8
			c0,2.8,0,5.7,0,8.5c0,0.4,0,0.7,0,1.1c0.1,1,0.7,1.6,1.7,1.8c0.2,0,0.4,0,0.5,0c0.1,0,0.2-0.1,0.2-0.2c0-0.1-0.1-0.2-0.2-0.3
			c-0.1-0.1-0.2-0.1-0.4-0.1c-0.5,0-0.9-0.2-1.1-0.6c-0.2-0.3-0.2-0.6-0.2-0.9c0-1.2,0-2.4,0-3.6c0-1.2,0-2.4,0-3.6
			C81.8,28,81.8,26.8,81.8,25.7z"/>
		<path class="st2" d="M68.2,41.1c-1.6,0-3.2,0-4.8,0c-0.2,0-0.2-0.1-0.2-0.2c0-1.2,0-2.3,0-3.5c0-0.2,0-0.2,0.2-0.2
			c2.5,0,5.1,0,7.6,0c0.4,0,0.7,0,1.1-0.1c0.7-0.2,1.1-0.6,1-1.3c-0.1-0.8-0.5-1.2-1.3-1.2c-1.1,0-2.3,0-3.4,0
			c-1.3,0-2.6-0.4-3.5-1.4c-0.8-0.7-1.3-1.7-1.5-2.7c-0.2-1.3-0.2-2.5,0.4-3.7c0.8-1.5,2.1-2.4,3.8-2.6c0.6-0.1,1.2-0.1,1.8-0.1
			c0.6,0,1.3,0,1.9,0c1.5,0,3,0,4.5,0c0.2,0,0.2,0,0.2,0.2c0,1.2,0,2.5,0,3.7c0,0.2,0,0.2-0.2,0.2c-2.1,0-4.2,0-6.3-0.1
			c-0.3,0-0.7,0-1,0.1c-0.7,0.3-1,0.9-0.7,1.6c0.3,0.6,0.8,0.9,1.5,0.9c1.3,0,2.6,0,3.8,0c0.6,0,1.3,0,1.9,0.1c1.3,0.3,2,1,2.1,2.3
			c0.1,1.3,0.2,2.7,0,4c-0.3,2.1-1.8,3.4-3.9,3.6c-1,0.1-2,0-2.9,0C69.7,41.1,69,41.1,68.2,41.1z M69.2,40.7c1.3,0,2.5,0,3.8,0
			c0.2,0,0.5,0,0.7,0c0.6-0.1,1.1-0.2,1.6-0.6c0.9-0.7,1.3-1.7,1.5-2.8c0.1-0.8,0-1.5,0.1-2.3c0-0.4,0-0.8-0.1-1.2
			c-0.2-1.3-1.2-2.2-2.5-2.2c-0.2,0-0.3,0.1-0.3,0.3c0,0.2,0.1,0.3,0.3,0.3c0.2,0,0.4,0,0.6,0.1c0.8,0.3,1.3,1,1.4,1.9
			c0.1,0.8,0,1.6,0,2.4c0,0.4-0.1,0.8-0.2,1.2c-0.4,1.5-1.4,2.3-3,2.3c-2.6,0-5.1,0-7.7,0c-0.3,0-0.3-0.1-0.4-0.3c0-0.2,0-0.4,0-0.6
			c0-0.3,0-0.6,0-0.9c0-0.2-0.2-0.4-0.3-0.3c-0.2,0-0.2,0.2-0.3,0.3c0,0.1,0,0.2,0,0.3c0,0.5,0,1,0,1.5c0,0.5,0.2,0.7,0.7,0.7
			C66.5,40.7,67.9,40.7,69.2,40.7z M71.3,24.7c-0.8,0-1.4,0-2,0c-0.6,0-1.2,0-1.8,0.1c-1.1,0.2-2,0.8-2.5,1.8
			c-0.3,0.6-0.5,1.2-0.5,1.8c0,0.6-0.1,1.2,0,1.8c0.3,1.9,1.6,3,3.3,3.6c0.1,0,0.2,0.1,0.4,0c0.2,0,0.3-0.1,0.3-0.3
			c0-0.2-0.1-0.3-0.3-0.3c-0.4,0-0.7-0.2-1.1-0.4c-1-0.5-1.8-1.4-2-2.5c-0.2-0.8-0.2-1.7,0-2.5c0.3-1.6,1.3-2.6,3-2.6
			c1.8,0,3.6,0,5.5,0c0.4,0,0.8,0,1.2,0c0.2,0,0.2,0.1,0.2,0.2c0,0.4,0,0.7,0,1.1c0,0.2,0.1,0.4,0.3,0.4c0.2,0,0.3-0.1,0.3-0.4
			c0-0.5,0-1,0-1.6c0-0.3-0.1-0.4-0.4-0.4C73.9,24.8,72.5,24.7,71.3,24.7z"/>
		<path class="st2" d="M23,32.8c0-2.7,0-5.3,0-8c0-0.4,0-0.4,0.4-0.4c2.3,0,4.6,0,7,0c2.6,0,4.9,1.6,5.8,4.1
			c1.2,3.3-0.5,6.8-3.8,7.9c-0.6,0.2-1.2,0.3-1.8,0.3c-0.7,0-1.4,0-2.1,0c-0.2,0-0.2,0-0.2-0.2c0-1.1,0-2.2,0-3.3
			c0-0.2,0-0.2,0.2-0.2c0.7,0,1.4,0,2,0c1.2-0.1,2.1-1.2,2.1-2.4c0-1.3-0.9-2.2-2.2-2.2c-1,0-2.1,0-3.1,0c-0.1,0-0.2,0-0.1,0.2
			c0,0.1,0,0.1,0,0.2c0,4.1,0,8.3,0,12.4c0,0.2-0.1,0.3-0.3,0.3c-1.2,0-2.3,0-3.5,0c-0.2,0-0.3-0.1-0.3-0.3C23,38.2,23,35.5,23,32.8
			z M23.9,32.5c0,2.4,0,4.8,0,7.3c0,0.1,0,0.2,0,0.3c0,0.1,0.1,0.2,0.2,0.2c0.1,0,0.2,0,0.3-0.1c0.1-0.1,0.1-0.2,0.1-0.4
			c0-2.6,0-5.2,0-7.9c0-2.2,0-4.5,0-6.7c0-0.3-0.1-0.5-0.3-0.5c-0.2,0-0.3,0.2-0.3,0.5C23.9,27.6,23.9,30,23.9,32.5z M34,30.7
			c0-1-0.3-1.9-0.8-2.6c-0.6-0.7-1.3-1.1-2.3-1.1c-0.2,0-0.3,0.1-0.3,0.3c0,0.2,0.1,0.3,0.2,0.3c0.1,0,0.1,0,0.2,0
			c0.6,0,1.1,0.2,1.5,0.6c1,1,1.2,2.7,0.5,3.9c-0.4,0.6-0.9,1.1-1.6,1.3c-0.2,0-0.4,0-0.6,0.1c-0.1,0-0.2,0.1-0.2,0.3
			c0,0.2,0.1,0.2,0.2,0.3c0.1,0,0.2,0,0.2,0c0.5,0,1-0.1,1.4-0.4C33.5,33,33.9,31.9,34,30.7z M29.5,34.9c0-0.3,0-0.7,0-1
			c0-0.3-0.1-0.4-0.3-0.4c-0.2,0-0.3,0.2-0.3,0.4c0,0.7,0,1.4,0,2c0,0.3,0.1,0.4,0.3,0.4c0.2,0,0.3-0.1,0.3-0.4
			C29.5,35.5,29.5,35.2,29.5,34.9z"/>
		<path class="st2" d="M99.6,41.1c-0.7,0-1.5,0-2.4,0c-1.8-0.2-3-1.3-3.2-3.1c-0.1-0.6,0-1.2,0-1.9c0-3.8,0-7.6,0-11.4
			c0-0.2,0-0.3,0.3-0.3c1.3,0,2.6,0,3.8,0c0.2,0,0.2,0.1,0.2,0.3c0,1.1,0,2.1,0,3.2c0,0.2,0,0.2,0.2,0.2c1.1,0,2.2,0,3.3,0
			c0.2,0,0.2,0,0.2,0.2c0,1.2,0,2.3,0,3.5c0,0.2,0,0.2-0.2,0.2c-1.1,0-2.2,0-3.3,0c-0.2,0-0.2,0-0.2,0.2c0,1.2,0,2.4,0,3.6
			c0,0.8,0.5,1.3,1.3,1.3c0.8,0,1.6,0,2.4,0c0.2,0,0.2,0,0.2,0.2c0,1.2,0,2.3,0,3.5c0,0.2,0,0.2-0.2,0.2
			C101.2,41.1,100.5,41.1,99.6,41.1z M97.8,34.4L97.8,34.4c0-0.8,0-1.6,0-2.4c0-0.4,0.2-0.7,0.5-0.8c0.2-0.1,0.3,0,0.5,0
			c0.2,0,0.3-0.1,0.3-0.3c0-0.2-0.1-0.3-0.2-0.3c-0.2-0.1-0.5-0.1-0.7,0c-0.6,0.1-0.9,0.5-1,1c0,0.2,0,0.4,0,0.6c0,1.3,0,2.7,0,4
			c0,0.2,0,0.5,0,0.7c0.1,1,0.7,1.3,1.5,1.3c0.2,0,0.3-0.1,0.3-0.2c0-0.2-0.1-0.2-0.2-0.3c-0.1,0-0.2,0-0.2-0.1
			c-0.6-0.1-0.8-0.4-0.8-1C97.8,35.9,97.8,35.1,97.8,34.4z M97.1,26.8L97.1,26.8c0,0.5,0,1.1,0,1.6c0,0.5,0.2,0.6,0.6,0.6
			c0.4,0,0.8,0,1.2,0c0.1,0,0.2-0.1,0.3-0.2c0.1-0.3-0.1-0.4-0.3-0.5c-0.2,0-0.5,0-0.7,0c-0.5,0-0.5,0-0.5-0.6c0-0.9,0-1.8,0-2.6
			c0-0.2-0.1-0.4-0.3-0.4c-0.2,0-0.3,0.1-0.3,0.4C97.1,25.8,97.1,26.3,97.1,26.8z M100.9,30c0,0.4,0,0.8,0,1.2
			c0,0.2,0.1,0.4,0.3,0.4c0.2,0,0.3-0.1,0.3-0.4c0-0.8,0-1.6,0-2.4c0-0.2-0.1-0.4-0.3-0.4c-0.2,0-0.3,0.1-0.3,0.4
			C100.9,29.2,100.9,29.6,100.9,30z M100.8,39.2c0,0.3,0,0.7,0,1c0,0.2,0.1,0.4,0.3,0.4c0.2,0,0.3-0.1,0.3-0.4c0-0.7,0-1.4,0-2.1
			c0-0.2-0.1-0.4-0.3-0.4c-0.2,0-0.3,0.1-0.3,0.4C100.8,38.4,100.8,38.8,100.8,39.2z"/>
		<path class="st2" d="M38.2,30.3c0-2,0-3.9,0-5.9c0-0.2,0-0.3,0.2-0.3c1.3,0,2.6,0,3.9,0c0.2,0,0.3,0.1,0.3,0.3c0,3.8,0,7.6,0,11.4
			c0,0.9,0.5,1.5,1.4,1.5c0.8,0,1.6,0,2.4,0c0.2,0,0.2,0,0.2,0.2c0,1.1,0.1,2.2,0.1,3.3c0,0.2-0.1,0.2-0.2,0.2c-1.2,0-2.3,0-3.5,0
			c-2.7,0-4.7-1.8-4.9-4.5c-0.1-0.8,0-1.7,0-2.5C38.2,32.8,38.2,31.6,38.2,30.3z M40,27.6C40,27.6,40.1,27.6,40,27.6
			c0-0.8,0-1.6,0-2.4c0-0.3-0.1-0.4-0.3-0.4c-0.2,0-0.3,0.1-0.3,0.4c0,2.5,0,5,0,7.5c0,1.5,0,3,0,4.5c0,0.4,0.1,0.7,0.2,1.1
			c0.4,0.8,1.1,1.3,1.8,1.6c0.3,0.1,0.6,0.2,0.9,0.3c0.2,0,0.3,0,0.3-0.2c0-0.2,0-0.3-0.2-0.3c-0.2,0-0.3-0.1-0.5-0.1
			c-0.8-0.2-1.4-0.7-1.8-1.4c-0.1-0.2-0.2-0.5-0.2-0.7C40,34,40,30.8,40,27.6z"/>
		<path class="st2" d="M110.4,30.8c0-2.1,0-4.1,0-6.2c0-0.2,0-0.2,0.2-0.2c1.3,0,2.6,0,3.9,0c0.2,0,0.2,0,0.2,0.2
			c0,3.6,0,7.3,0,10.9c0,0.2,0,0.4,0,0.6c0.1,0.6,0.7,1,1.4,1c0.8,0,1.5,0,2.3,0c0.2,0,0.2,0,0.2,0.2c0,1.1,0,2.3,0,3.4
			c0,0.2,0,0.2-0.2,0.2c-1.6,0-3.1,0-4.7,0c-0.8,0-1.6-0.2-2.3-0.8c-0.5-0.5-0.7-1.1-0.9-1.8c-0.1-0.6-0.2-1.3-0.2-1.9
			C110.4,34.5,110.4,32.6,110.4,30.8z M113.6,30.8C113.6,30.8,113.6,30.8,113.6,30.8c0,1.6,0,3.2,0,4.9c0,0.5,0,0.9,0.1,1.3
			c0.1,0.5,0.4,0.8,0.9,1c0.3,0.1,0.6,0.1,0.9,0.1c0.2,0,0.4-0.2,0.4-0.4c0-0.2-0.2-0.3-0.4-0.3c-0.2,0-0.5,0-0.7,0
			c-0.3-0.1-0.5-0.2-0.6-0.6c0-0.3-0.1-0.5-0.1-0.8c0-3.6,0-7.1,0-10.7c0-0.1,0-0.1,0-0.2c0-0.2-0.1-0.3-0.3-0.3
			c-0.2,0-0.3,0.1-0.3,0.3c0,0.1,0,0.1,0,0.2C113.6,27.1,113.6,29,113.6,30.8z M118.1,39.1c0-0.2,0-0.4,0-0.5c0-0.2,0-0.4,0-0.5
			c0-0.2-0.1-0.3-0.3-0.3c-0.2,0-0.3,0.1-0.3,0.3c0,0,0,0.1,0,0.1c0,0.6,0,1.3,0,1.9c0,0.1,0,0.2,0,0.2c0,0.1,0.1,0.2,0.3,0.2
			c0.2,0,0.2-0.1,0.3-0.2c0-0.1,0-0.2,0-0.2C118.1,39.8,118.1,39.4,118.1,39.1z"/>
		<path class="st2" d="M103.7,32.6c0-2.7,0-5.5,0-8.2c0-0.2,0.1-0.3,0.3-0.3c1.3,0,2.7,0,4,0c0.2,0,0.2,0.1,0.2,0.2
			c0,5.5,0,11,0,16.5c0,0.2-0.1,0.2-0.2,0.2c-1.3,0-2.7,0-4,0c-0.2,0-0.2,0-0.2-0.2C103.7,38.1,103.7,35.4,103.7,32.6z M107.2,32.4
			c0,2.4,0,4.8,0,7.2c0,0.1,0,0.1,0,0.2c0,0.2,0.1,0.3,0.3,0.3c0.2,0,0.3-0.1,0.3-0.2c0-0.1,0-0.1,0-0.2c0-4.8,0-9.7,0-14.5
			c0-0.1,0-0.2,0-0.2c0-0.1-0.1-0.2-0.3-0.2c-0.2,0-0.3,0.1-0.3,0.3c0,0.1,0,0.1,0,0.2C107.2,27.6,107.2,30,107.2,32.4z"/>
		<path class="st2" d="M109,19.6c0,1.7-1.3,3.1-3,3.1c-1.8,0-3.1-1.3-3.1-3.2c0-1.6,1.4-2.9,3.2-2.9C107.6,16.6,109,18,109,19.6z
			 M106.3,21.9c0.3,0,0.6-0.1,0.9-0.3c1.1-0.7,1.5-2.3,0.8-3.5c-0.4-0.7-1.1-1.1-1.9-1.1c-0.3,0-0.5,0.2-0.3,0.5
			c0.1,0.1,0.2,0.2,0.3,0.2c0.2,0,0.4,0,0.6,0.1c0.7,0.3,1.1,1.2,0.9,2c-0.1,0.8-0.7,1.3-1.5,1.4c-0.2,0-0.3,0.1-0.3,0.3
			C105.7,21.8,105.9,22,106.3,21.9z"/>
		<path class="st2" d="M90.6,19.1c-0.4,0.6-0.8,1.3-1.2,1.9c-0.6,0.9-1.2,1.8-1.8,2.7c-0.1,0.1-0.1,0.2-0.3,0.2c-1.4,0-2.8,0-4.2,0
			c0,0-0.1,0-0.1,0c0-0.1,0-0.1,0.1-0.2c1-1.5,2-2.9,3-4.4c0.1-0.1,0.2-0.2,0.4-0.2c1.3,0,2.5,0,3.8,0
			C90.4,19.1,90.5,19.1,90.6,19.1z M88.2,19.5C88.2,19.5,88.2,19.5,88.2,19.5c-0.3,0-0.6,0-0.9,0c-0.2,0-0.3,0.1-0.3,0.3
			c0,0.2,0.1,0.3,0.3,0.3c0.3,0,0.7,0,1,0c0.1,0,0.1,0,0.2,0c0,0.1,0,0.1-0.1,0.2c-0.5,0.6-1,1.3-1.4,1.9c-0.1,0.2-0.2,0.3-0.3,0.5
			c0,0.1,0,0.2,0.1,0.3c0.1,0.1,0.2,0.1,0.3,0c0.1-0.1,0.2-0.1,0.2-0.2c0.7-0.9,1.4-1.8,2-2.8c0.1-0.1,0.2-0.2,0.1-0.3
			c-0.1-0.1-0.2-0.1-0.3-0.1C88.8,19.5,88.5,19.5,88.2,19.5z"/>
		<path class="st2" d="M115.5,23c0-0.7,0.5-1.2,1.2-1.2c0.6,0,1.1,0.5,1.1,1.2c0,0.7-0.5,1.2-1.2,1.2C116,24.2,115.5,23.7,115.5,23z
			 M116.7,22.1c-0.5,0-0.9,0.4-0.9,1c0,0.5,0.4,1,0.9,1c0.5,0,0.9-0.4,0.9-1C117.6,22.5,117.2,22.1,116.7,22.1z"/>
		<path class="st0" d="M59.5,32.6c0,1.2,0,2.5,0,3.7c0,0.4,0,0.7-0.2,1.1c-0.2,0.7-1,1.1-1.7,1c-0.1,0-0.3-0.1-0.3-0.3
			c0-0.2,0.1-0.2,0.3-0.2c0.1,0,0.2,0,0.3,0c0.5-0.1,0.7-0.4,0.8-0.9c0.1-0.3,0.1-0.6,0.1-0.9c0-2.2,0-4.4,0-6.6c0-0.3,0-0.7-0.1-1
			c-0.1-0.6-0.4-0.9-1-0.9c0,0-0.1,0-0.1,0c-0.2,0-0.3-0.1-0.3-0.2c0-0.2,0.1-0.3,0.3-0.3c0.5-0.1,0.9,0.1,1.3,0.4
			c0.5,0.4,0.6,0.9,0.6,1.5C59.5,30.1,59.5,31.3,59.5,32.6z"/>
		<path class="st0" d="M49.3,35.4c0.1-1.2,0.4-2.4,1.3-3.3c0.3-0.2,0.5-0.4,0.9-0.6c0.2-0.1,0.3-0.1,0.4,0.1c0.1,0.2,0,0.3-0.1,0.4
			c-1.2,0.6-1.6,1.6-1.8,2.8c-0.2,1.2,0,2.3,0.7,3.3c0.5,0.7,1.2,1.2,2.1,1.5c0.2,0.1,0.3,0.1,0.3,0.3c0,0.2-0.2,0.3-0.5,0.2
			c-1.6-0.6-2.7-1.6-3-3.3C49.3,36.3,49.3,35.9,49.3,35.4z"/>
		<path class="st0" d="M51.1,26.2c0,0.4,0,0.7,0,1.1c0,0.2-0.1,0.4-0.3,0.4c-0.2,0-0.3-0.1-0.3-0.4c0-0.7,0-1.5,0-2.2
			c0-0.2,0.1-0.4,0.3-0.4c0.2,0,0.3,0.1,0.3,0.4C51.2,25.5,51.2,25.8,51.1,26.2C51.2,26.2,51.1,26.2,51.1,26.2z"/>
		<path class="st0" d="M91.5,32.5c0,2.4,0,4.8,0,7.2c0,0.1,0,0.1,0,0.2c0,0.2-0.1,0.3-0.3,0.3c-0.2,0-0.3-0.1-0.3-0.2
			c0-0.1,0-0.2,0-0.3c0-4.8,0-9.6,0-14.4c0,0,0-0.1,0-0.1c0-0.2,0.1-0.4,0.3-0.4c0.2,0,0.3,0.1,0.3,0.4c0,1.4,0,2.9,0,4.3
			C91.5,30.5,91.5,31.5,91.5,32.5z"/>
		<path class="st0" d="M81.8,25.7c0,1.2,0,2.3,0,3.5c0,1.2,0,2.4,0,3.6c0,1.2,0,2.4,0,3.6c0,0.3,0.1,0.6,0.2,0.9
			c0.3,0.4,0.7,0.6,1.1,0.6c0.1,0,0.2,0,0.4,0.1c0.1,0.1,0.2,0.1,0.2,0.3c0,0.1-0.1,0.2-0.2,0.2c-0.2,0-0.4,0-0.5,0
			c-1-0.2-1.6-0.7-1.7-1.8c0-0.4,0-0.7,0-1.1c0-2.8,0-5.7,0-8.5c0-0.6,0-1.2,0-1.8c0-0.3,0.1-0.4,0.3-0.4c0.2,0,0.3,0.1,0.3,0.4
			C81.9,25.3,81.9,25.5,81.8,25.7C81.9,25.7,81.8,25.7,81.8,25.7z"/>
		<path class="st0" d="M69.2,40.7c-1.3,0-2.7,0-4,0c-0.5,0-0.7-0.2-0.7-0.7c0-0.5,0-1,0-1.5c0-0.1,0-0.2,0-0.3
			c0-0.2,0.1-0.3,0.3-0.3c0.1,0,0.3,0.2,0.3,0.3c0,0.3,0,0.6,0,0.9c0,0.2,0,0.4,0,0.6c0,0.3,0.1,0.3,0.4,0.3c2.6,0,5.1,0,7.7,0
			c1.6,0,2.5-0.8,3-2.3c0.1-0.4,0.2-0.8,0.2-1.2c0-0.8,0-1.6,0-2.4c-0.1-0.9-0.6-1.6-1.4-1.9c-0.2-0.1-0.4-0.1-0.6-0.1
			c-0.2,0-0.3-0.1-0.3-0.3c0-0.2,0.1-0.3,0.3-0.3c1.3,0,2.3,0.9,2.5,2.2c0.1,0.4,0.1,0.8,0.1,1.2c0,0.8,0.1,1.5-0.1,2.3
			c-0.2,1.1-0.6,2.1-1.5,2.8c-0.5,0.4-1,0.5-1.6,0.6c-0.2,0-0.5,0-0.7,0C71.7,40.7,70.5,40.7,69.2,40.7z"/>
		<path class="st0" d="M71.3,24.7c1.2,0,2.5,0,3.9,0c0.3,0,0.4,0.1,0.4,0.4c0,0.5,0,1,0,1.6c0,0.2-0.1,0.4-0.3,0.4
			c-0.2,0-0.3-0.1-0.3-0.4c0-0.4,0-0.7,0-1.1c0-0.2-0.1-0.2-0.2-0.2c-0.4,0-0.8,0-1.2,0c-1.8,0-3.6-0.1-5.5,0c-1.7,0-2.8,1-3,2.6
			c-0.1,0.8-0.2,1.7,0,2.5c0.3,1.1,1,1.9,2,2.5c0.3,0.2,0.7,0.3,1.1,0.4c0.2,0,0.3,0.1,0.3,0.3c0,0.2-0.1,0.3-0.3,0.3
			c-0.1,0-0.2,0-0.4,0c-1.7-0.6-3-1.7-3.3-3.6c-0.1-0.6,0-1.2,0-1.8c0-0.7,0.2-1.3,0.5-1.8c0.5-1,1.4-1.6,2.5-1.8
			c0.6-0.1,1.2-0.1,1.8-0.1C69.9,24.7,70.6,24.7,71.3,24.7z"/>
		<path class="st0" d="M23.9,32.5c0-2.4,0-4.9,0-7.3c0-0.3,0.1-0.5,0.3-0.5c0.2,0,0.3,0.2,0.3,0.5c0,2.2,0,4.5,0,6.7
			c0,2.6,0,5.2,0,7.9c0,0.1,0,0.2-0.1,0.4c-0.1,0.1-0.1,0.1-0.3,0.1c-0.1,0-0.2-0.1-0.2-0.2c0-0.1,0-0.2,0-0.3
			C23.9,37.3,23.9,34.9,23.9,32.5z"/>
		<path class="st0" d="M34,30.7c-0.1,1.2-0.5,2.3-1.7,3c-0.4,0.3-0.9,0.4-1.4,0.4c-0.1,0-0.2,0-0.2,0c-0.1,0-0.2-0.1-0.2-0.3
			c0-0.2,0.1-0.2,0.2-0.3c0.2,0,0.4,0,0.6-0.1c0.7-0.2,1.2-0.6,1.6-1.3c0.7-1.3,0.5-2.9-0.5-3.9c-0.4-0.4-0.9-0.6-1.5-0.6
			c-0.1,0-0.1,0-0.2,0c-0.2,0-0.3-0.1-0.2-0.3c0-0.2,0.1-0.3,0.3-0.3c0.9,0,1.7,0.4,2.3,1.1C33.8,28.9,34,29.7,34,30.7z"/>
		<path class="st0" d="M29.5,34.9c0,0.3,0,0.7,0,1c0,0.3-0.1,0.4-0.3,0.4c-0.2,0-0.3-0.1-0.3-0.4c0-0.7,0-1.4,0-2
			c0-0.2,0.1-0.4,0.3-0.4c0.2,0,0.3,0.2,0.3,0.4C29.5,34.2,29.5,34.5,29.5,34.9z"/>
		<path class="st0" d="M97.8,34.4c0,0.8,0,1.5,0,2.3c0,0.6,0.3,0.9,0.8,1c0.1,0,0.2,0,0.2,0.1c0.1,0.1,0.2,0.1,0.2,0.3
			c0,0.2-0.1,0.2-0.3,0.2c-0.8,0-1.4-0.4-1.5-1.3c0-0.2,0-0.5,0-0.7c0-1.3,0-2.7,0-4c0-0.2,0-0.4,0-0.6c0.1-0.6,0.4-1,1-1
			c0.2,0,0.5,0,0.7,0c0.1,0,0.3,0.1,0.2,0.3c0,0.2-0.1,0.3-0.3,0.3c-0.2,0-0.3,0-0.5,0c-0.3,0.1-0.5,0.4-0.5,0.8
			C97.8,32.8,97.8,33.6,97.8,34.4L97.8,34.4z"/>
		<path class="st0" d="M97.1,26.8c0-0.5,0-1.1,0-1.6c0-0.2,0.1-0.4,0.3-0.4c0.2,0,0.3,0.1,0.3,0.4c0,0.9,0,1.8,0,2.6
			c0,0.5,0,0.5,0.5,0.6c0.2,0,0.5,0,0.7,0c0.3,0,0.4,0.2,0.3,0.5c0,0.1-0.1,0.2-0.3,0.2c-0.4,0-0.8,0-1.2,0c-0.5,0-0.6-0.2-0.6-0.6
			C97.1,27.9,97.1,27.4,97.1,26.8L97.1,26.8z"/>
		<path class="st0" d="M100.9,30c0-0.4,0-0.8,0-1.2c0-0.2,0.1-0.4,0.3-0.4c0.2,0,0.3,0.1,0.3,0.4c0,0.8,0,1.6,0,2.4
			c0,0.2-0.1,0.4-0.3,0.4c-0.2,0-0.3-0.2-0.3-0.4C100.9,30.8,100.9,30.4,100.9,30z"/>
		<path class="st0" d="M100.8,39.2c0-0.4,0-0.7,0-1.1c0-0.2,0.1-0.4,0.3-0.4c0.2,0,0.3,0.1,0.3,0.4c0,0.7,0,1.4,0,2.1
			c0,0.2-0.1,0.4-0.3,0.4c-0.2,0-0.3-0.2-0.3-0.4C100.8,39.9,100.8,39.5,100.8,39.2z"/>
		<path class="st0" d="M40,27.6c0,3.2,0,6.5,0,9.7c0,0.3,0.1,0.5,0.2,0.7c0.4,0.7,1,1.2,1.8,1.4c0.2,0,0.3,0.1,0.5,0.1
			c0.2,0,0.2,0.2,0.2,0.3c0,0.2-0.2,0.2-0.3,0.2c-0.3,0-0.6-0.1-0.9-0.3c-0.8-0.4-1.5-0.8-1.8-1.6c-0.2-0.3-0.2-0.7-0.2-1.1
			c0-1.5,0-3,0-4.5c0-2.5,0-5,0-7.5c0-0.3,0.1-0.4,0.3-0.4c0.2,0,0.3,0.1,0.3,0.4C40.1,25.9,40.1,26.8,40,27.6
			C40.1,27.6,40,27.6,40,27.6z"/>
		<path class="st0" d="M113.6,30.8c0-1.8,0-3.7,0-5.5c0-0.1,0-0.1,0-0.2c0-0.2,0.1-0.3,0.3-0.3c0.2,0,0.3,0.1,0.3,0.3
			c0,0.1,0,0.1,0,0.2c0,3.6,0,7.1,0,10.7c0,0.3,0,0.5,0.1,0.8c0.1,0.3,0.3,0.5,0.6,0.6c0.2,0.1,0.5,0,0.7,0c0.2,0,0.4,0.1,0.4,0.3
			c0,0.2-0.2,0.3-0.4,0.4c-0.3,0-0.6,0-0.9-0.1c-0.5-0.1-0.8-0.5-0.9-1c-0.1-0.4-0.1-0.9-0.1-1.3C113.6,34,113.6,32.4,113.6,30.8
			C113.6,30.8,113.6,30.8,113.6,30.8z"/>
		<path class="st0" d="M118.1,39.1c0,0.3,0,0.7,0,1c0,0.1,0,0.2,0,0.2c0,0.1-0.1,0.2-0.3,0.2c-0.1,0-0.2-0.1-0.3-0.2
			c0-0.1,0-0.2,0-0.2c0-0.6,0-1.3,0-1.9c0,0,0-0.1,0-0.1c0-0.2,0.1-0.3,0.3-0.3c0.2,0,0.3,0.1,0.3,0.3c0,0.2,0,0.4,0,0.5
			C118.1,38.8,118.1,38.9,118.1,39.1z"/>
		<path class="st0" d="M107.2,32.4c0-2.4,0-4.8,0-7.3c0-0.1,0-0.1,0-0.2c0-0.2,0.1-0.3,0.3-0.3c0.1,0,0.3,0.1,0.3,0.2
			c0,0.1,0,0.2,0,0.2c0,4.8,0,9.7,0,14.5c0,0.1,0,0.1,0,0.2c0,0.2-0.1,0.2-0.3,0.2c-0.2,0-0.2-0.1-0.3-0.3c0-0.1,0-0.1,0-0.2
			C107.2,37.2,107.2,34.8,107.2,32.4z"/>
		<path class="st0" d="M106.3,21.9c-0.5,0-0.6-0.1-0.6-0.4c0-0.2,0.2-0.3,0.3-0.3c0.8-0.1,1.4-0.6,1.5-1.4c0.2-0.9-0.2-1.7-0.9-2
			c-0.2-0.1-0.4-0.1-0.6-0.1c-0.1,0-0.3,0-0.3-0.2c-0.2-0.3,0-0.5,0.3-0.5c0.9,0,1.5,0.4,1.9,1.1c0.7,1.2,0.4,2.8-0.8,3.5
			C106.9,21.8,106.6,22,106.3,21.9z"/>
		<path class="st0" d="M88.2,19.5c0.3,0,0.6,0,0.9,0c0.1,0,0.3,0,0.3,0.1c0.1,0.1,0,0.2-0.1,0.3c-0.7,0.9-1.4,1.8-2,2.8
			c-0.1,0.1-0.1,0.2-0.2,0.2c-0.1,0.1-0.2,0.1-0.3,0c-0.1-0.1-0.1-0.2-0.1-0.3c0.1-0.2,0.2-0.3,0.3-0.5c0.5-0.6,1-1.3,1.4-1.9
			c0,0,0.1-0.1,0.1-0.2c0-0.1-0.1,0-0.2,0c-0.3,0-0.7,0-1,0c-0.2,0-0.3-0.1-0.3-0.3c0-0.2,0.1-0.3,0.3-0.3
			C87.6,19.5,87.9,19.5,88.2,19.5C88.2,19.5,88.2,19.5,88.2,19.5z"/>
		<path class="st0" d="M116.7,22.1c0.5,0,0.9,0.4,0.9,1c0,0.5-0.4,1-0.9,1c-0.5,0-0.9-0.4-0.9-1C115.7,22.5,116.1,22.1,116.7,22.1z
			 M117.2,23.7c-0.1-0.2,0-0.4-0.2-0.5c-0.1-0.1,0-0.1,0-0.2c0.2-0.2,0.1-0.5-0.1-0.6c-0.2-0.1-0.4,0-0.5,0c-0.1,0-0.1,0.1-0.1,0.1
			c0,0.4,0,0.7,0,1.1c0,0.1,0,0.1,0.1,0.1c0.1,0,0.1-0.1,0.1-0.1c0-0.1,0-0.2,0-0.3c0-0.1,0.1-0.1,0.1-0.1c0.2,0,0.3,0.2,0.3,0.3
			C116.9,23.7,116.9,23.8,117.2,23.7z"/>
		<path class="st2" d="M117.2,23.7c-0.2,0.1-0.3,0-0.3-0.2c0-0.2-0.1-0.3-0.3-0.3c-0.1,0-0.2,0-0.1,0.1c0,0.1,0,0.2,0,0.3
			c0,0.1,0,0.1-0.1,0.1c-0.1,0-0.1,0-0.1-0.1c0-0.4,0-0.7,0-1.1c0-0.1,0-0.1,0.1-0.1c0.2,0,0.4,0,0.5,0c0.3,0.1,0.3,0.4,0.1,0.6
			c-0.1,0.1-0.1,0.1,0,0.2C117.1,23.3,117.1,23.5,117.2,23.7z M116.4,22.8c0,0.1-0.1,0.2,0.2,0.2c0.1,0,0.3,0,0.3-0.2
			c0-0.2-0.1-0.2-0.3-0.2C116.4,22.5,116.4,22.7,116.4,22.8z"/>
		<path class="st0" d="M116.4,22.8c0-0.1,0-0.2,0.2-0.2c0.2,0,0.3,0,0.3,0.2c0,0.2-0.2,0.2-0.3,0.2C116.4,23,116.4,22.9,116.4,22.8z
			"/>
	</g>
</g>
</svg>
