<?xml version="1.0" encoding="utf-8"?>
<!-- Generator: Adobe Illustrator 19.2.0, SVG Export Plug-In . SVG Version: 6.00 Build 0)  -->
<svg version="1.1" id="Capa_1" xmlns="http://www.w3.org/2000/svg" xmlns:xlink="http://www.w3.org/1999/xlink" x="0px" y="0px"
	 viewBox="0 0 310 69" style="enable-background:new 0 0 310 69;" xml:space="preserve">
<style type="text/css">
	.st0{fill:#004992;}
	.st1{fill:#FFFFFF;}
</style>
<g>
	<path class="st0" d="M291.5,3.3c8,0,13.2,5.2,13.2,13.2v34.9c0,8-5.2,13.2-13.2,13.2H16.7c-8,0-13.2-5.2-13.2-13.2V16.5
		c0-8,5.2-13.2,13.2-13.2H291.5L291.5,3.3z"/>
	<path class="st1" d="M135.2,35.5c0,7.9,6.3,14.3,14.2,14.3c7.9,0,14.4-6.4,14.4-14.3c0-7.9-6.4-14.3-14.2-14.3
		C141.7,21.2,135.2,27.6,135.2,35.5L135.2,35.5L135.2,35.5z M119.5,47l6.2-16.4l2.2,16.6c0.2,1.5,1.2,2,2.5,2h3.2l-4.3-27.6h-4.8
		l-7.2,18.8l-7.2-18.8h-4.9L101,49.3h5.2l2.5-19l5.6,14.7c0.5,1.3,1.3,2,2.7,2H119.5L119.5,47z M70.4,30.5c0-5.4-3.8-8.8-9-8.8h-9.2
		v25.5c0,1.5,0.6,2.1,2.1,2.1h3.1V39.1h3.6l4.4,8.6c0.6,1.2,1.3,1.6,2.6,1.6h4.1l-6.3-11.2C68.5,36.8,70.4,34.1,70.4,30.5L70.4,30.5
		L70.4,30.5z M228.8,21.7v25.5c0,1.5,0.7,2.1,2.1,2.1h2.9V30.1l12,17.3c1,1.4,1.9,1.9,3.3,1.9h3V21.7h-5v19.5l-13.3-19.5H228.8
		L228.8,21.7z M167.3,21.7v25.5c0,1.5,0.7,2.1,2.1,2.1h2.9V30.1l12,17.3c1,1.4,1.9,1.9,3.3,1.9h3V21.7h-5v19.5l-13.3-19.5H167.3
		L167.3,21.7z M93.3,47.4c0.5,1.3,1.2,1.9,2.5,1.9h3.7L88.9,21.7h-5.3L73,49.3h5.4l2.1-6.1h11.2L93.3,47.4L93.3,47.4z M275.3,47.4
		c0.5,1.3,1.2,1.9,2.5,1.9h3.7l-10.7-27.6h-5.3L255,49.3h5.4l2.2-6.1h11.2L275.3,47.4L275.3,47.4z M140.8,35.5c0-5,3.9-9.1,8.7-9.1
		c4.8,0,8.7,4.1,8.7,9.1c0,5-3.9,9-8.7,9C144.7,44.6,140.8,40.5,140.8,35.5L140.8,35.5L140.8,35.5z M201.5,26.6v20.6
		c0,1.5,0.7,2.1,2.1,2.1h3.3V26.6h7.6v-4.9h-20.7v2.8c0,1.5,0.6,2.1,2.1,2.1H201.5L201.5,26.6z M35.8,26.6v20.6
		c0,1.5,0.7,2.1,2.1,2.1h3.3V26.6h7.6v-4.9H28.1v2.8c0,1.5,0.7,2.1,2.1,2.1H35.8L35.8,26.6z M223.5,21.7h-5.4v25.5
		c0,1.5,0.7,2.1,2.1,2.1h3.3V21.7L223.5,21.7z M57.3,26.4h3.6c2,0,4.2,0.9,4.2,4c0,3-2.2,4-4.2,4h-3.6V26.4L57.3,26.4z M268.1,27.6
		l3.9,10.8h-7.7L268.1,27.6L268.1,27.6z M86.2,27.6l3.9,10.8h-7.7L86.2,27.6L86.2,27.6z"/>
</g>
</svg>
