<?xml version="1.0" encoding="UTF-8" standalone="no"?>
<svg width="180px" height="52px" viewBox="0 0 180 52" version="1.1" xmlns="http://www.w3.org/2000/svg" xmlns:xlink="http://www.w3.org/1999/xlink">
    <!-- Generator: Sketch 3.6 (26304) - http://www.bohemiancoding.com/sketch -->
    <title>logo-utilar</title>
    <desc>Created with Sketch.</desc>
    <defs>
        <path id="path-1" d="M5.95710135,10.9659558 L5.95710135,0.545872377 L0.47388092,0.545872377 L0.47388092,10.9659558 L5.95710135,10.9659558 L5.95710135,10.9659558 Z"></path>
    </defs>
    <g id="Page-1" stroke="none" stroke-width="1" fill="none" fill-rule="evenodd">
        <g id="logo-utilar">
            <g id="Page-1">
                <path d="M11.7418858,0.0311384615 C11.7382169,0.528369231 11.732102,1.0256 11.732102,1.52283077 C11.7235412,8.39052308 11.7162034,15.2569846 11.7039736,22.1246769 C11.7027507,23.0526769 11.6379331,23.9831385 11.7272101,24.9099077 C11.9534601,27.2434462 12.8278858,29.3222154 14.2709939,31.1437538 C16.3573858,33.7751385 19.0479264,35.4403692 22.3475074,36.0803692 C23.1681223,36.2391385 23.9985209,36.1665231 24.8228047,36.1702154 C27.7885142,36.1862154 30.7542236,36.1751385 33.7211561,36.1776 C35.5690682,36.1788308 37.4169804,36.1800615 39.2648926,36.1923692 C39.4997034,36.1936 39.5755277,36.1431385 39.5743047,35.8920615 C39.5522912,28.8200615 39.5388385,21.7480615 39.5229399,14.6760615 C39.5192709,12.9997538 39.515602,11.0329846 39.4997034,9.35790769 C39.4972574,9.12898462 39.5645209,9.35790769 39.788325,9.35790769 C43.5281764,9.36406154 47.2680277,9.36652308 51.0066561,9.35790769 C51.2598115,9.35667692 51.3038385,9.12529231 51.3038385,9.35790769 C51.2916088,14.9160615 51.2867169,20.7892923 51.2793791,26.3474462 C51.2793791,27.2237538 51.2708182,28.0988308 51.2708182,28.9751385 C51.2659264,35.1068308 51.2598115,41.6052923 51.2671493,47.7369846 C51.2671493,48.0459077 51.1742034,47.7369846 50.8929196,47.7369846 C44.5420209,47.7296 38.1911223,47.7382154 31.8390007,47.7369846 C29.0885345,47.7357538 26.3368453,47.7702154 23.5863791,47.7369846 C22.3523993,47.7222154 21.1306493,47.9363692 19.9125682,47.7369846 C17.8775412,47.4034462 15.8547439,46.5320615 13.9383453,45.7492923 C11.4349196,44.7252923 9.22745338,43.2176 7.2670277,41.3566769 C5.22955473,39.4231385 3.52228446,37.2163692 2.16111554,34.7548308 C1.12158851,32.8766769 0.590818243,30.8163692 0.266730405,28.7019077 C0.184791216,28.1689846 0.134649324,27.6311385 0.0710547297,27.0945231 C0.0649398649,27.0416 0.0698317568,26.9849846 0.00623716216,26.9616 C0.00623716216,18.0828308 0.00746013514,9.20283077 0.000122297297,0.322830769 C0.000122297297,0.0803692308 0.0539331081,0.0237538462 0.296081757,0.0249846154 C4.11175743,0.0336 7.92621014,0.0311384615 11.7418858,0.0311384615" id="Fill-1" fill="#0075BD"></path>
                <path d="M75.8042676,0.0311384615 C75.8654162,0.130830769 75.8360649,-0.0747076923 75.8360649,0.0311384615 C75.8385108,2.33390769 75.8348419,5.31236923 75.8421797,7.61390769 C75.8434027,7.84652308 75.8140514,7.67913846 75.5388824,7.61390769 C75.5083081,7.60652308 75.4752878,7.61390769 75.4422676,7.61390769 C67.0013081,7.60652308 58.5591257,7.62375385 50.1169432,7.61390769 C46.7342,7.61021538 43.3514568,7.62375385 39.9687135,7.61390769 C39.8268486,7.61390769 39.6458486,7.90190769 39.6470716,7.61390769 C39.6593014,5.17083077 39.6593014,2.47421538 39.6629703,0.0311384615 L52.6240378,0.0311384615 C52.7145378,0.116061538 52.8270514,0.0311384615 52.932227,0.0311384615 C60.4816392,0.0348307692 68.0310514,0.0299076923 75.5804635,0.0311384615 C75.6550649,0.0311384615 75.7296662,0.0360615385 75.8042676,0.0311384615" id="Fill-3" fill="#1C3B72"></path>
                <path id="Fill-5" fill="#0075BD" d="M75.8042676,0.0311384615 C75.7296662,0.0360615385 75.6550649,0.0311384615 75.5804635,0.0311384615 C68.0310514,0.0299076923 60.4816392,0.0348307692 52.932227,0.0311384615 C52.8270514,0.0311384615 52.7145378,0.116061538 52.6240378,0.0311384615 L75.8372878,0.0311384615 C75.8213892,0.0422153846 75.8103824,0.0114461538 75.8042676,0.0311384615"></path>
                <path d="M114.408877,21.8535385 C114.408877,20.5661538 114.399093,19.28 114.411323,17.9926154 C114.423553,16.7630769 113.988174,15.7304615 113.091735,14.9070769 C111.659634,13.5889231 109.992722,13.2713846 108.226749,14.0307692 C106.482789,14.7827692 105.566782,16.1747692 105.572897,18.1316923 C105.581458,20.7926154 105.577789,23.4523077 105.569228,26.1132308 C105.568005,26.3643077 105.627931,26.4393846 105.887201,26.4381538 C108.627884,26.4283077 111.367343,26.4295385 114.106803,26.4381538 C114.344059,26.4381538 114.417438,26.384 114.414992,26.1353846 C114.402762,24.7089231 114.408877,23.2812308 114.408877,21.8535385 M79.6960122,28.5575385 C79.6960122,22.2843077 79.6984581,15.6307692 79.6886743,9.35753846 C79.6874514,9.03630769 79.7742824,9.35630769 80.0775797,9.35753846 C82.7424378,9.37107692 85.4072959,9.35507692 88.073377,9.35753846 C88.5637892,9.35753846 88.5050865,8.864 88.5050865,9.35753846 C88.5063095,20.432 88.5050865,31.9384615 88.5050865,43.0129231 C88.5050865,43.4547692 88.5063095,43.4547692 88.9539176,43.4547692 C91.4353297,43.4547692 93.9179649,43.4498462 96.4006,43.4621538 C96.7026743,43.4646154 96.7919514,43.4018462 96.7919514,43.0793846 C96.7821676,34.7298462 96.7992892,26.3815385 96.7760527,18.032 C96.7674919,15.0116923 98.0772959,12.7249231 100.437634,10.9796923 C101.940668,9.86830769 103.651607,9.36 105.506857,9.35753846 C108.591195,9.35261538 111.674309,9.32676923 114.758647,9.35753846 C116.821803,9.37846154 118.637918,10.1353846 120.200877,11.4904615 C121.776066,12.8553846 122.824154,14.528 123.136012,16.6264615 C123.210614,17.1286154 123.232627,17.6369231 123.232627,18.1452308 C123.232627,27.8892308 123.231404,37.9926154 123.238742,47.7366154 C123.238742,48.0073846 123.194715,47.7390769 122.896309,47.7366154 C120.188647,47.7230769 117.480985,47.7255385 114.7721,47.7366154 C114.483478,47.7378462 114.401539,48.0393846 114.401539,47.7366154 C114.411323,42.3187692 114.408877,36.5304615 114.407654,31.1126154 C114.407654,30.6375385 114.472472,30.6916923 114.005296,30.6916923 C111.329431,30.6892308 108.653566,30.6953846 105.977701,30.6830769 C105.667066,30.6818462 105.564336,30.7396923 105.565559,31.0830769 C105.579012,36.512 105.571674,42.3076923 105.582681,47.7366154 C105.582681,48.0406154 105.49585,47.7366154 105.210897,47.7366154 C96.8286405,47.7292308 88.4463838,47.7267692 80.064127,47.7366154 C79.7412622,47.7378462 79.6886743,48.0369231 79.6898973,47.7366154 C79.6984581,41.4756923 79.6960122,34.8196923 79.6960122,28.5575385" id="Fill-7" fill="#0075BD"></path>
                <path d="M135.355469,20.0542769 C135.355469,22.0764308 135.360361,24.0973538 135.349354,26.1195077 C135.348131,26.3767385 135.417841,26.4407385 135.669773,26.4382769 C136.936773,26.4247385 138.204996,26.4062769 139.471996,26.4395077 C140.886976,26.4764308 142.040239,25.9693538 143.019841,24.9502769 C143.792759,24.1465846 144.153536,23.1964308 144.173104,22.1108923 C144.197564,20.7164308 144.185334,19.3219692 144.17555,17.9275077 C144.171881,17.3355077 144.080158,16.7508923 143.809881,16.2204308 C142.9538,14.5465846 141.576732,13.6875077 139.706807,13.6628923 C138.354199,13.6444308 137.000368,13.6653538 135.646536,13.6518154 C135.399496,13.6493538 135.348131,13.7195077 135.349354,13.9570462 C135.359138,15.9890462 135.355469,18.0222769 135.355469,20.0542769 M145.265219,28.3792 C146.565239,28.3792 147.791881,28.3090462 149.007516,28.3952 C150.757591,28.5195077 151.969557,29.4979692 152.692334,31.0856615 C152.930814,31.6087385 152.994408,32.1822769 152.994408,32.7582769 C152.994408,37.6345846 152.993185,42.8592 153.000523,47.7367385 C153.000523,47.9964308 152.952827,47.7379692 152.672766,47.7367385 C149.943091,47.7256615 147.214638,47.7256615 144.484962,47.7367385 C144.2208,47.7379692 144.173104,47.9804308 144.174327,47.7367385 C144.181665,43.6272 144.160874,39.1902769 144.185334,35.0819692 C144.201232,32.4062769 141.866577,30.6561231 139.824212,30.6918154 C138.449591,30.7164308 137.073746,30.7065846 135.697901,30.6893538 C135.410503,30.6856615 135.348131,30.7644308 135.349354,31.0462769 C135.357915,36.4752 135.3518,42.3078154 135.362807,47.7367385 C135.36403,48.0555077 135.299212,47.7392 134.967786,47.7367385 C132.260124,47.7207385 129.552462,47.7268923 126.843577,47.7367385 C126.590422,47.7379692 126.525604,47.9927385 126.525604,47.7367385 C126.532942,35.1595077 126.532942,21.9348923 126.525604,9.35766154 C126.525604,9.10412308 126.589199,9.35766154 126.8448,9.35766154 C132.625793,9.36504615 138.406786,9.34535385 144.189003,9.35766154 C147.89828,9.36504615 151.194192,11.6259692 152.478314,14.9872 C152.823192,15.8918154 152.980955,16.8358154 152.980955,17.7970462 C152.982178,18.9958154 153.109368,20.2068923 152.886786,21.3896615 C152.408604,23.9348923 151.2798,26.0788923 148.945145,27.3908923 C148.037699,27.9004308 147.029969,28.1268923 146.003895,28.2610462 C145.783759,28.2905846 145.564847,28.3312 145.265219,28.3792" id="Fill-9" fill="#0075BD"></path>
                <path d="M54.8809122,28.5548308 C54.8809122,22.2729846 54.8833581,15.6391385 54.8735743,9.35729231 C54.8735743,9.07421538 54.9383919,9.35606154 55.2221216,9.35729231 C57.8111554,9.37083077 60.4014122,9.36836923 62.9904459,9.35729231 C63.258277,9.35729231 63.3255405,9.08898462 63.3243176,9.35729231 C63.3133108,11.6280615 63.3206486,14.2397538 63.3169797,16.5092923 C63.3120878,20.3259077 63.3010811,24.1425231 63.2949662,27.9579077 C63.2864054,32.3911385 63.2815135,36.8231385 63.2741757,41.2563692 C63.2705068,43.3105231 63.2619459,45.6834462 63.2705068,47.7363692 C63.2705068,47.9936 63.2032432,47.7376 62.9537568,47.7363692 C60.3537162,47.7277538 57.7536757,47.7265231 55.1536351,47.7363692 C54.8858041,47.7376 54.8197635,48.0059077 54.8209865,47.7363692 C54.8368851,42.6877538 54.843,37.3006769 54.8503378,32.2508308 C54.8515608,31.0188308 54.8503378,29.7868308 54.8503378,28.5548308 L54.8809122,28.5548308 Z" id="Fill-11" fill="#1C3B72"></path>
                <path d="M67.4008534,33.2574769 C67.4008534,28.5534769 67.4045223,23.8494769 67.3935155,19.1454769 C67.3922926,18.8402462 67.4791236,18.7774769 67.7652993,18.7787077 C70.3445493,18.7897846 72.9237993,18.7885538 75.5018264,18.7799385 C75.7549818,18.7787077 75.8467047,18.8180923 75.8454818,19.1048615 C75.8308061,23.1491692 75.8515966,27.1934769 75.8210223,31.2377846 C75.7977858,34.3196308 75.8161304,37.4002462 75.8026777,40.4820923 C75.7941169,42.7959385 75.7867791,45.4224 75.789225,47.7374769 C75.789225,47.9676308 75.7500899,47.7374769 75.4957115,47.7374769 C72.8846642,47.7264 70.2736169,47.7251692 67.6625696,47.7374769 C67.3849547,47.7387077 67.3568264,47.9676308 67.3568264,47.7374769 C67.3629412,43.0224 67.3617182,37.9713231 67.3617182,33.2574769 L67.4008534,33.2574769" id="Fill-13" fill="#0075BD"></path>
                <path d="M71.5814642,17.016 C70.2924507,17.016 69.0022142,17.0110769 67.7132007,17.0209231 C67.4759439,17.0233846 67.3842209,16.9827692 67.3854439,16.7107692 C67.3976736,14.3747692 67.3964507,11.6929231 67.3866669,9.35815385 C67.3866669,9.10707692 67.4465926,9.35692308 67.7034169,9.35815385 C70.3046804,9.368 72.9047209,9.36553846 75.5047615,9.35815385 C75.7456872,9.35692308 75.8288493,9.09107692 75.8276264,9.35815385 C75.8153966,11.704 75.8178426,14.3870769 75.8264034,16.7341538 C75.8264034,16.9569231 75.7774845,17.0246154 75.5463426,17.0221538 C74.2243088,17.0098462 72.903498,17.016 71.5814642,17.016" id="Fill-15" fill="#ED922C"></path>
                <path d="M168.886453,40.2636308 C168.886453,40.7387077 168.899905,41.2150154 168.880338,41.6888615 C168.871777,41.9239385 168.950047,41.9842462 169.168959,41.9670154 C169.424561,41.9485538 169.683831,41.9657846 169.940655,41.9620923 C170.499554,41.9534769 170.9545,41.5596308 171.018095,41.0033231 C171.073128,40.5097846 171.070682,40.0113231 171.020541,39.5165538 C170.964284,38.9454769 170.505669,38.5368615 169.936986,38.5245538 C169.658149,38.5184 169.378088,38.5331692 169.09925,38.5196308 C168.928034,38.5122462 168.880338,38.5737846 168.882784,38.7411692 C168.892568,39.2482462 168.886453,39.7565538 168.886453,40.2636308 M171.769,42.4605538 C171.805689,42.4679385 171.833818,42.4790154 171.861946,42.4802462 C172.875791,42.5245538 173.217,42.8814769 173.217,43.8993231 C173.217,45.0784 173.209662,46.2574769 173.224338,47.4365538 C173.226784,47.6864 173.154628,47.7417846 172.919818,47.7331692 C172.382932,47.7159385 171.844824,47.7171692 171.307939,47.7331692 C171.092696,47.7405538 171.038885,47.6716308 171.040108,47.4624 C171.049892,46.4679385 171.021764,45.4722462 171.051115,44.4777846 C171.076797,43.6371692 170.521568,43.0365538 169.707068,43.1300923 C169.444128,43.1608615 169.096804,43.0131692 168.934149,43.1867077 C168.775162,43.3577846 168.890122,43.7024 168.888899,43.9694769 C168.884007,45.1054769 168.877892,46.2414769 168.892568,47.3762462 C168.896236,47.6433231 168.857101,47.7553231 168.552581,47.7368615 C168.038932,47.7048615 167.521615,47.7147077 167.006743,47.7344 C166.759703,47.7430154 166.686324,47.6802462 166.687547,47.4205538 C166.697331,44.3054769 166.693662,41.1916308 166.693662,38.0765538 C166.693662,37.3553231 166.693662,37.3553231 167.406655,37.3553231 L170.952054,37.3553231 C172.060068,37.3553231 172.941831,38.0519385 173.165635,39.1436308 C173.273257,39.6753231 173.268365,40.2254769 173.17175,40.7571692 C173.017655,41.6014769 172.638534,42.0334769 171.769,42.4605538" id="Fill-17" fill="#1C3B72"></path>
                <path d="M161.694026,47.728 C161.390729,47.7058462 161.023837,47.7686154 160.66306,47.6935385 C159.787411,47.5076923 159.278655,46.9612308 159.14902,46.0701538 C159.054851,45.4227692 159.054851,45.4227692 159.688351,45.4227692 C159.784966,45.4227692 159.88158,45.4276923 159.978195,45.4215385 C160.116391,45.4129231 160.201999,45.4375385 160.194661,45.6098462 C160.164087,46.2707692 160.828161,46.6523077 161.525256,46.5575385 C162.095161,46.48 162.446155,45.9532308 162.353209,45.3083077 C162.312851,45.0326154 162.18933,44.8 162.011999,44.5883077 C161.234189,43.6664615 160.478391,42.7236923 159.678567,41.8215385 C158.851837,40.8886154 158.838384,38.6646154 159.934168,37.8387692 C160.33408,37.536 160.763344,37.344 161.267209,37.3563077 C161.793087,37.3698462 162.320189,37.3083077 162.842398,37.3944615 C163.861134,37.5643077 164.593695,38.4923077 164.532547,39.5212308 C164.526432,39.6307692 164.487297,39.6775385 164.377229,39.6713846 C164.291621,39.6664615 164.206013,39.6713846 164.120405,39.6701538 C163.916168,39.6676923 163.691141,39.7193846 163.51381,39.6467692 C163.329141,39.5716923 163.393959,39.3046154 163.318134,39.1298462 C163.079655,38.5895385 162.572121,38.3803077 161.944736,38.5846154 C161.459216,38.7421538 161.176709,39.3156923 161.303898,39.8818462 C161.362601,40.1427692 161.503243,40.3556923 161.672013,40.5563077 C162.385006,41.4055385 163.078432,42.2744615 163.815884,43.1027692 C164.629161,44.016 164.676857,45.072 164.420033,46.1723077 C164.243925,46.928 163.393959,47.8141538 162.333641,47.7304615 C162.141634,47.7144615 161.948405,47.728 161.694026,47.728" id="Fill-19" fill="#1C3B72"></path>
                <g id="Group-23" transform="translate(174.885135, 36.802215)">
                    <mask id="mask-2" fill="white">
                        <use xlink:href="#path-1"></use>
                    </mask>
                    <g id="Clip-22"></g>
                    <path d="M0.480016892,5.73070769 C0.480016892,4.10978462 0.486131757,2.48886154 0.473902027,0.867938462 C0.472679054,0.610707692 0.544834459,0.538092308 0.796766892,0.547938462 C1.31163851,0.567630769 1.82773311,0.568861538 2.34260473,0.546707692 C2.60921284,0.536861538 2.68381419,0.611938462 2.68259122,0.885169231 C2.67158446,3.67286154 2.67647635,6.46055385 2.67647635,9.24824615 C2.67647635,9.76763077 2.67647635,9.76886154 3.2035777,9.76886154 C4.03030743,9.76886154 4.85703716,9.77501538 5.68376689,9.76393846 C5.88311149,9.76024615 5.94792905,9.81686154 5.93447635,10.0174769 C5.91368581,10.3054769 6.02619932,10.6833231 5.88433446,10.8630154 C5.73268581,11.0525538 5.34255743,10.9220923 5.05760473,10.9233231 C3.6291723,10.9294769 2.20073986,10.9184 0.773530405,10.9319385 C0.524043919,10.9344 0.472679054,10.8617846 0.473902027,10.6254769 C0.484908784,8.99347692 0.480016892,7.36270769 0.480016892,5.73070769" id="Fill-21" fill="#1C3B72" mask="url(#mask-2)"></path>
                </g>
            </g>
        </g>
    </g>
</svg>