<?xml version="1.0" encoding="utf-8"?>
<!-- Generator: Adobe Illustrator 19.2.0, SVG Export Plug-In . SVG Version: 6.00 Build 0)  -->
<svg version="1.1" id="Capa_1" xmlns="http://www.w3.org/2000/svg" xmlns:xlink="http://www.w3.org/1999/xlink" x="0px" y="0px"
	 viewBox="0 0 31.1 14.2" style="enable-background:new 0 0 31.1 14.2;" xml:space="preserve">
<style type="text/css">
	.st0{fill:#040404;}
	.st1{fill:#037199;}
</style>
<g>
	<path class="st0" d="M7.2,11.7c0.3-0.6,0.6-1.2,0.9-1.8c0.1-0.2,0.2-0.2,0.3-0.2c0.2,0,0.3,0,0.5,0c-0.5,0.8-0.8,1.6-1.2,2.4
		c0,0.1-0.1,0.1-0.2,0.1c-0.5,0-1,0-1.4,0c-0.1,0-0.2-0.1-0.2-0.1c-0.5-0.6-1-1.3-1.4-1.9c-0.1,0-0.1,0.1-0.1,0.1
		c-0.3,0.5-0.5,1-0.8,1.6c0,0,0,0.1,0,0.1c0,0.3-0.2,0.3-0.4,0.3c-0.2,0-0.3,0-0.4,0c0.4-0.7,0.8-1.5,1.1-2.3C3.9,9.7,4,9.6,4.2,9.6
		c0.4,0,0.9,0,1.3,0c0.1,0,0.2,0,0.2,0.1C6.3,10.4,6.7,11,7.2,11.7z"/>
	<path class="st1" d="M13.8,5.8c0.3,0,0.5,0,0.8,0.1c0.4,0.2,0.5,0.5,0.3,0.8C14.8,6.9,14.8,7,14.7,7c-0.9,0.8-1.9,1.1-3,1
		c-0.3,0-0.6-0.1-0.7-0.4C10.9,7.3,11,7,11.2,6.8c0.5-0.5,1.1-0.8,1.8-1C13.3,5.8,13.6,5.8,13.8,5.8z"/>
	<path class="st0" d="M23.4,12.2c1.1-0.7,2.1-1.5,3.1-2.3c0.1-0.1,0.2-0.1,0-0.3c0.6,0,1.1,0,1.6,0c0.1,0,0.1,0.1,0.1,0.1
		c0.3,0.6,0.5,1.3,0.8,1.9c0.1,0.2,0.1,0.3,0.3,0.5c-0.6,0-1.2,0-1.8,0c0.1-0.2,0-0.4-0.1-0.6c0-0.1-0.1-0.1-0.1-0.1
		c-0.7,0-1.4,0-2,0c-0.1,0-0.1,0-0.2,0c-0.2,0.2-0.5,0.3-0.7,0.6c0,0.1-0.1,0.1-0.2,0.1C24,12.2,23.7,12.2,23.4,12.2z M26.9,10.2
		c-0.4,0.3-0.8,0.6-1.3,0.9c0.6,0,1.1,0,1.6,0C27.1,10.8,27,10.5,26.9,10.2z"/>
	<path class="st0" d="M14.5,9.6c-0.8,0.5-1.5,1.2-2.2,1.8c-0.3,0.2-0.6,0.5-0.8,0.7c-0.1,0.1-0.2,0.1-0.3,0.1c-0.3,0-0.7,0-1,0
		c-0.1,0-0.2-0.1-0.2-0.2c-0.2-0.6-0.3-1.3-0.5-1.9c0-0.2-0.1-0.3-0.2-0.5c0.6,0,1.2,0,1.8,0c0,0.1-0.1,0.2,0,0.3
		c0.1,0.6,0.3,1.1,0.4,1.7c0.1,0,0.1,0,0.1-0.1c0.6-0.5,1.2-1,1.9-1.6c0.1-0.1,0.2-0.1,0.2-0.3c0-0.1,0.1-0.1,0.1-0.1
		C14,9.6,14.2,9.6,14.5,9.6z"/>
	<path class="st0" d="M19.9,11.8c-0.1,0.2-0.3,0.4-0.6,0.4c-0.9,0-1.8,0-2.6,0c-0.2,0-0.4,0-0.5-0.1c-0.2-0.1-0.3-0.2-0.2-0.4
		c0.3-0.5,0.5-1.1,0.8-1.6c0.1-0.3,0.4-0.4,0.7-0.4c0.1,0,0.3,0,0.5,0c0.9,0,1.8,0,2.8,0c0.1,0,0.2-0.1,0.2,0.1
		c0,0.1,0.1,0.3-0.2,0.3c-0.7-0.1-1.4,0-2.1,0c-0.2,0-0.3,0.1-0.3,0.2c-0.2,0.5-0.5,0.9-0.7,1.4c-0.1,0.2-0.1,0.2,0.1,0.2
		C18.3,11.9,19.1,11.9,19.9,11.8C19.8,11.8,19.8,11.8,19.9,11.8z"/>
	<path class="st0" d="M21.4,12.2c0.4-0.7,0.7-1.5,1.1-2.2c-0.5,0-1,0-1.5,0c0.1-0.3,0.3-0.4,0.6-0.4c1.2,0,2.5,0,3.7,0
		c0.1,0,0.2-0.1,0.2,0.1c0,0.1,0.1,0.3-0.2,0.3c-0.4-0.1-0.8,0-1.2,0c-0.1,0-0.1,0-0.2,0.1c-0.3,0.6-0.6,1.2-0.9,1.8c0,0,0,0,0,0.1
		c0,0.3-0.2,0.3-0.4,0.2C22.2,12.2,21.8,12.2,21.4,12.2z"/>
	<path class="st1" d="M16.2,6.1c-0.2,0-0.5,0-0.7-0.1c-0.3-0.1-0.3-0.4-0.2-0.7c0.1-0.1,0.2-0.3,0.3-0.4c0.7-0.5,1.4-0.8,2.3-0.7
		c0.1,0,0.1,0,0.2,0c0.5,0.1,0.6,0.5,0.3,0.9C18,5.6,17.5,5.8,16.9,6C16.7,6,16.5,6.1,16.2,6.1z"/>
	<path class="st1" d="M12,4.2c0.3,0,0.5,0,0.7,0.1C13,4.4,13,4.7,12.9,5c-0.1,0.1-0.1,0.2-0.3,0.3C12,5.8,11.2,6.1,10.3,6
		c0,0-0.1,0-0.1,0C9.7,5.9,9.5,5.5,9.9,5.1c0.4-0.5,1-0.7,1.7-0.8C11.7,4.2,11.9,4.2,12,4.2z"/>
	<path class="st0" d="M16.4,9.6c-0.4,0.7-0.8,1.5-1.1,2.3c-0.1,0.3-0.2,0.3-0.4,0.3c-0.4,0-0.8,0-1.2,0c0.4-0.7,0.7-1.4,1.1-2.1
		c0-0.1,0.1-0.1,0.1-0.2c0-0.3,0.2-0.3,0.4-0.2C15.6,9.7,16,9.6,16.4,9.6z"/>
	<path class="st0" d="M3.4,9.6C3.2,9.8,3.1,10.1,3,10.3c-0.2,0.5-0.5,1-0.7,1.5c0,0.1-0.1,0.1-0.1,0.2c0,0.3-0.2,0.3-0.5,0.3
		c-0.4,0-0.8,0-1.2,0c0.4-0.7,0.8-1.5,1.1-2.3c0.1-0.3,0.2-0.3,0.5-0.3C2.6,9.7,3,9.6,3.4,9.6z"/>
	<path class="st1" d="M20.9,3c0.2,0,0.4,0,0.5,0.1c0.2,0.1,0.3,0.3,0.2,0.5c-0.1,0.2-0.2,0.3-0.3,0.4c-0.5,0.4-1.1,0.6-1.8,0.5
		c-0.2,0-0.4-0.1-0.5-0.3C18.9,4,19,3.8,19.2,3.7C19.7,3.2,20.2,3.1,20.9,3z"/>
	<path class="st1" d="M9.1,4.2c-0.2,0-0.4,0-0.5-0.1C8.3,4,8.3,3.8,8.4,3.6c0-0.1,0.1-0.2,0.1-0.2c0.6-0.5,1.2-0.8,2-0.7
		c0.2,0,0.4,0.1,0.4,0.3c0.1,0.2,0,0.4-0.2,0.5C10.3,4,9.7,4.2,9.1,4.2z"/>
	<path class="st1" d="M7,3.2c-0.2,0-0.3,0-0.4-0.1C6.4,3,6.4,2.8,6.4,2.7c0,0,0-0.1,0.1-0.1C6.8,2.1,7.8,1.8,8.3,2
		c0.3,0.1,0.4,0.3,0.2,0.6C8.1,2.9,7.7,3.1,7.3,3.2C7.2,3.2,7.1,3.2,7,3.2z"/>
	<path class="st1" d="M22.8,3.3c-0.1,0-0.3,0-0.4-0.1c-0.2-0.1-0.2-0.3-0.1-0.4c0-0.1,0.1-0.1,0.2-0.2C22.8,2.2,23.3,2,23.9,2
		c0.1,0,0.1,0,0.2,0c0.3,0.1,0.3,0.3,0.2,0.5c-0.1,0.1-0.1,0.2-0.2,0.2C23.7,3.1,23.3,3.3,22.8,3.3z"/>
	<path class="st1" d="M5.2,2c0.2,0,0.4,0,0.4,0.2c0.1,0.2-0.1,0.3-0.2,0.4c-0.3,0.2-0.6,0.3-1,0.3c-0.1,0-0.2-0.1-0.3-0.2
		c0-0.1,0-0.2,0.1-0.3C4.5,2.2,4.8,2.1,5.2,2z"/>
	<path class="st1" d="M25.3,2.2c-0.2,0-0.4,0-0.4-0.2c-0.1-0.2,0.1-0.3,0.2-0.4c0.3-0.2,0.6-0.3,1-0.3c0.1,0,0.3,0,0.3,0.2
		c0,0.1,0,0.2-0.1,0.3C25.9,2.1,25.6,2.2,25.3,2.2z"/>
	<path class="st1" d="M27.4,1.6c-0.1,0-0.2,0-0.3-0.1c0-0.1,0.1-0.2,0.2-0.3c0.2-0.1,0.4-0.2,0.7-0.2c0.1,0,0.2,0,0.2,0.1
		c0,0.1,0,0.2-0.1,0.2C27.9,1.5,27.6,1.6,27.4,1.6z"/>
	<path class="st1" d="M28.6,1.8c-0.1,0-0.2,0-0.2-0.1c0-0.1,0-0.2,0.1-0.2c0.1-0.1,0.3-0.2,0.5-0.1c0.1,0,0.2,0,0.2,0.1
		c0,0.1,0,0.1-0.1,0.2C28.9,1.7,28.8,1.8,28.6,1.8z"/>
	<g>
		<path d="M30.6,12.2c0,0.3-0.2,0.5-0.5,0.5c-0.3,0-0.5-0.2-0.5-0.5c0-0.3,0.2-0.5,0.5-0.5C30.4,11.7,30.6,11.9,30.6,12.2z
			 M29.7,12.2c0,0.2,0.2,0.4,0.4,0.4c0.2,0,0.4-0.2,0.4-0.4c0-0.2-0.2-0.4-0.4-0.4C29.9,11.8,29.7,12,29.7,12.2z M30,12.4h-0.1V12
			c0,0,0.1,0,0.2,0c0.1,0,0.1,0,0.2,0c0,0,0,0.1,0,0.1c0,0.1,0,0.1-0.1,0.1v0c0,0,0.1,0.1,0.1,0.1c0,0.1,0,0.1,0,0.1h-0.1
			c0,0,0-0.1,0-0.1c0-0.1,0-0.1-0.1-0.1H30V12.4z M30,12.2L30,12.2c0.1,0,0.2,0,0.2-0.1c0,0,0-0.1-0.1-0.1c0,0-0.1,0-0.1,0V12.2z"/>
	</g>
</g>
</svg>
