<?xml version="1.0" encoding="utf-8"?>
<!-- Generator: Adobe Illustrator 19.2.0, SVG Export Plug-In . SVG Version: 6.00 Build 0)  -->
<svg version="1.1" id="Capa_1" xmlns="http://www.w3.org/2000/svg" xmlns:xlink="http://www.w3.org/1999/xlink" x="0px" y="0px"
	 viewBox="0 0 174 46" style="enable-background:new 0 0 174 46;" xml:space="preserve">
<style type="text/css">
	.st0{fill:#6E425F;}
</style>
<g id="NUf4M2_1_">
	<g>
		<path class="st0" d="M19.8,39.2c-3.6-6.1-7.1-12-10.6-18c0.1-0.1,0.1-0.2,0.2-0.3c3,3,6.5,4,10.5,2.9c3.9-1.1,6.4-3.9,8.1-8
			c1.6,4.1,3.9,7,8,8c3.9,1,7.5,0.5,10.5-2.7c0.1,0.1,0.2,0.2,0.3,0.3c-3.5,5.9-6.9,11.8-10.4,17.7c-2.6-2-5.3-3.1-8.3-3
			C25,36.1,22.3,37.2,19.8,39.2z M28,21.3c-3.2,4.1-7.5,5.2-12.5,5.3c1.7,3.1,3.3,6,4.9,9c0.8-0.3,1.4-0.7,2.1-0.8
			c2.2-0.4,4.4-1.1,6.6-1c1.8,0,3.6,1,5.5,1.4c0.4,0.1,1.1,0.1,1.2-0.2c1.5-2.7,3-5.5,4.6-8.5C35.4,27.1,31.5,25,28,21.3z"/>
		<path class="st0" d="M108,26.4c-0.3,3.3-0.6,6.2-0.8,9.1c-0.1,1.2-0.2,2-1.7,1.7c-0.3-0.1-0.6,0-1.1,0c0.3-1.6,0.5-3.1,0.7-4.6
			c0.6-3.8,1.1-7.7,1.7-11.5c0.1-0.4,0.5-1.2,0.6-1.1c0.7,0.2,1.7-0.6,2.3,0.6c1.2,2.5,2.4,5,3.6,7.6c0.5,1,1,2,1.6,3.2
			c1.3-2.7,2.6-5.2,3.9-7.7c0.5-1,0.9-2,1.4-2.9c0.2-0.4,0.7-0.7,1.1-0.8c1.3-0.3,1.8,0.2,1.9,1.6c0.5,4.9,1.2,9.8,1.8,14.7
			c0,0.3,0,0.6,0,1c-1.3,0-2.5,0.1-3.7,0c-0.2,0-0.6-0.7-0.6-1c-0.4-3.2-0.7-6.4-1-10c-1.1,2.4-2.2,4.5-3.1,6.5
			c-0.5,1.1-0.9,2.2-1.5,3.2c-0.3,0.5-0.8,0.9-1.2,1.3c-0.4-0.4-0.9-0.8-1.2-1.3c-1.4-2.8-2.8-5.7-4.1-8.5
			C108.3,27.1,108.2,26.9,108,26.4z"/>
		<path class="st0" d="M135.8,28.3c0-2.4,0-4.9,0-7.3c0-0.4,0.5-1.1,0.7-1.1c3.3,0,6.7-0.1,10,0.4c3.1,0.5,5.2,3.2,5.5,6.4
			c0.7,6.1-3.2,10.4-9.2,10.5c-1.9,0-3.8,0-5.7,0c-1.1,0-1.4-0.3-1.4-1.4C135.8,33.3,135.8,30.8,135.8,28.3z M139.9,21.8
			c0,4.5,0,8.9,0,13.3c1.2,0,2.3,0.1,3.4,0c1.4-0.1,2.5-0.9,3.2-2.1c1.4-2.9,1.6-6,0.3-8.9c-1.2-2.7-4-2.4-6.4-2.4
			C140.2,21.7,140.1,21.8,139.9,21.8z"/>
		<path class="st0" d="M90.6,26.6c2.4,0,4.7,0,7.2,0c0-1.8,0.1-3.6,0-5.3c-0.1-1.2,0.2-1.8,1.5-1.4c0.2,0.1,0.4,0.1,0.7,0.1
			c1.9,0,1.9,0,1.9,2c0,4.6,0,9.2,0,13.8c0,1.1-0.3,1.4-1.4,1.4c-2.8-0.1-2.8,0-2.7-2.9c0-1.7,0-3.4,0-5.3c-2.4,0-4.7,0-7.2,0
			c0,2.3,0,4.5,0,6.7c0,1.1-0.3,1.4-1.4,1.4c-2.7-0.1-2.7,0-2.8-2.8c0-4.5,0-8.9-0.1-13.4c0-0.9,0.2-1.3,1.1-1.1
			c0.4,0.1,0.8,0.1,1.2,0.1c1.8-0.1,1.8-0.1,1.8,1.7C90.6,23.3,90.6,24.8,90.6,26.6z"/>
		<path class="st0" d="M83.1,23.7c-0.4-0.3-0.8-0.4-1-0.7c-2.1-2.7-6.7-2-8.2,1.5c-1,2.4-1.2,4.9-0.4,7.4c1.3,4.4,6.2,4.5,8.7,2.7
			c0.4-0.3,0.8-0.5,1.2-0.8c0.1,2.3-0.3,2.8-2.1,3.3c-4.5,1.3-9.3-0.3-11.5-3.6c-3.1-4.5-1-13.5,7.5-14c1.8-0.1,3.6,0.4,5.4,0.7
			c1,0.2,1.3,0.7,0.8,1.7C83.3,22.4,83.3,22.9,83.1,23.7z"/>
		<path class="st0" d="M65.6,23.8c-0.5-0.7-0.7-1-0.9-1.4c-0.8-1.3-2.1-1.3-3.2-1c-0.6,0.2-1.2,1-1.4,1.6c-0.4,1.2,0.4,2,1.4,2.6
			c0.9,0.5,1.9,0.9,2.8,1.4c2.1,1.1,3.4,2.8,3.2,5.2c-0.2,2.6-1.8,4.1-4.3,4.9c-1.9,0.6-3.8,0.5-5.7-0.2c-0.7-0.3-1.1-0.7-0.8-1.5
			c0.2-0.5,0.2-1.1,0.4-1.7c0.1-0.2,0.3-0.6,0.4-0.6c0.3,0,0.6,0.2,0.7,0.4c0.6,1.8,2,2.3,3.6,2c0.7-0.2,1.7-0.9,1.9-1.5
			c0.2-0.7-0.1-1.9-0.6-2.4c-1-0.9-2.4-1.4-3.6-2.1c-2.9-1.7-3.8-4.8-2-7.6c1.9-2.9,6.2-3,8.7-1.5c0.2,0.1,0.4,0.5,0.3,0.7
			C66.4,21.9,66,22.7,65.6,23.8z"/>
		<path class="st0" d="M157.9,22c-1.3,0.1-2.4,0.3-3.5,0.3c-0.4,0-1.1-0.5-1.1-0.5c0.2-0.7-0.6-1.9,0.8-1.9c3.8-0.1,7.7-0.1,11.5,0
			c1.2,0,0.7,1.1,0.7,1.7c0.1,0.8-0.4,0.9-1,0.8c-1-0.1-2.1-0.2-3.2-0.3c0,0.5-0.1,0.9-0.1,1.3c0,4.2,0,8.4,0,12.6
			c0,1-0.3,1.3-1.3,1.3c-2.8-0.1-2.8,0-2.8-2.8c0-3.7,0-7.4,0-11.1C157.9,22.9,157.9,22.5,157.9,22z"/>
		<path class="st0" d="M131.7,28.6c0,2.5,0,5,0,7.5c0,0.9-0.2,1.2-1.1,1.1c-2.9-0.2-2.9-0.2-2.9-3.1c0-4.3,0-8.5,0-12.8
			c0-1.3,0.4-1.7,1.6-1.3c0.2,0.1,0.4,0.1,0.7,0c1.8-0.1,1.8-0.1,1.8,1.8C131.7,24,131.7,26.3,131.7,28.6
			C131.7,28.6,131.7,28.6,131.7,28.6z"/>
		<path class="st0" d="M27.9,13c-2.6,0-4.6-2.1-4.6-4.7c0-2.5,2.2-4.6,4.7-4.6c2.4,0,4.6,2.3,4.6,4.6C32.6,10.8,30.5,13,27.9,13z
			 M30.1,8.3C30.1,7,29.3,6,28,6c-1.3,0-2.3,0.9-2.3,2.3c0,1.3,1,2.3,2.3,2.3C29.3,10.6,30.1,9.7,30.1,8.3z"/>
		<path class="st0" d="M41,11.6C41,9.1,43.1,7,45.6,7c2.5,0,4.5,2,4.6,4.6c0,2.6-2.1,4.7-4.6,4.7C43.2,16.3,41,14.1,41,11.6z
			 M43.4,11.4c-0.1,1.4,0.8,2.4,2.2,2.4c1.3,0,2.2-0.8,2.3-2.1c0.1-1.4-0.9-2.6-2.2-2.6C44.5,9.1,43.4,10.2,43.4,11.4z"/>
		<path class="st0" d="M15.1,11.7c0,2.4-2.3,4.6-4.6,4.6c-2.4,0-4.7-2.3-4.7-4.7C5.7,9.2,8,7,10.5,7C12.9,7,15.1,9.2,15.1,11.7z
			 M12.6,11.6c0-1.3-1.1-2.4-2.2-2.4c-1.1,0-2.2,1.2-2.2,2.4c0,1.3,0.9,2.2,2.2,2.3C11.7,13.9,12.6,13,12.6,11.6z"/>
	</g>
</g>
</svg>
