<?xml version="1.0" encoding="UTF-8" standalone="no"?>
<svg width="363px" height="111px" viewBox="0 0 363 111" version="1.1" xmlns="http://www.w3.org/2000/svg" xmlns:xlink="http://www.w3.org/1999/xlink">
    <!-- Generator: Sketch 3.6 (26304) - http://www.bohemiancoding.com/sketch -->
    <title>180 - iPhone 6 Plus</title>
    <desc>Created with Sketch.</desc>
    <defs>
        <path id="path-1" d="M9.6635411e-20,0.701616667 L9.6635411e-20,42.5692833 L26.6592696,42.5692833 L26.6592696,0.701616667 L0,0.701616667 L9.6635411e-20,0.701616667 Z"></path>
        <path id="path-3" d="M36.3975652,42.56785 L36.3975652,0.700183333 L0.854486957,0.700183333 L0.854486957,42.56785 L36.3975652,42.56785 L36.3975652,42.56785 Z"></path>
    </defs>
    <g id="Page-1" stroke="none" stroke-width="1" fill="none" fill-rule="evenodd">
        <g id="180---iPhone-6-Plus">
            <g id="Page-1" transform="translate(17.000000, 10.000000)">
                <g id="Group-3" transform="translate(0.000000, 42.999283)">
                    <mask id="mask-2" fill="white">
                        <use xlink:href="#path-1"></use>
                    </mask>
                    <g id="Clip-2"></g>
                    <path d="M26.6592696,42.5692833 L26.6592696,39.95345 L4.44083478,39.95345 L4.44083478,0.701616667 L-0.00142608696,0.701616667 L-0.00142608696,42.5692833 L26.6592696,42.5692833 Z M26.6592696,34.7217833 L13.332487,34.7217833 L13.332487,0.701616667 L8.89022609,0.701616667 L8.89022609,37.3376167 L26.6592696,37.3376167 L26.6592696,34.7217833 Z" id="Fill-1" fill="#000000" mask="url(#mask-2)"></path>
                </g>
                <path d="M42.8909913,63.3253833 L42.8909913,54.1663833 C42.8909913,52.8763833 43.575513,51.72255 44.9374261,50.71205 C46.6487304,49.4937167 48.9946435,48.8773833 51.9537739,48.8773833 C54.8558609,48.8773833 57.1090783,49.4937167 58.7134261,50.71205 C60.0111652,51.72255 60.6671652,52.8763833 60.6671652,54.1663833 L60.6671652,63.3253833 L42.8909913,63.3253833 Z M47.3332522,68.55705 L47.3332522,85.5707167 L42.8909913,85.5707167 L42.8909913,65.9412167 L60.6671652,65.9412167 L60.6671652,85.5707167 L56.2249043,85.5707167 L56.2249043,68.55705 L47.3332522,68.55705 Z M56.2249043,60.70955 L56.2249043,54.1663833 C56.2249043,53.5357167 55.8042087,52.94805 54.9770783,52.38905 C54.2069913,51.83005 53.1089043,51.55055 51.6899478,51.55055 C50.4421217,51.55055 49.4082087,51.80855 48.5810783,52.3317167 C47.7468174,52.8548833 47.3332522,53.4712167 47.3332522,54.1663833 L47.3332522,60.70955 L56.2249043,60.70955 Z M65.1094261,85.5707167 L65.1094261,54.1663833 C65.1094261,52.28155 64.1325565,50.5902167 62.1788174,49.0923833 C60.9880348,48.1822167 59.483513,47.5013833 57.6438609,47.0498833 C55.8042087,46.56255 53.8219478,46.3188833 51.6899478,46.3117167 C47.3617739,46.3117167 43.9605565,47.20755 41.4720348,48.9848833 C39.4541217,50.45405 38.4487304,52.17405 38.4487304,54.1663833 L38.4487304,85.5707167 L34.0064696,85.5707167 L34.0064696,54.1663833 C34.0064696,51.5147167 35.3113391,49.2142167 37.9139478,47.2577167 C39.5111652,46.06805 41.5290783,45.16505 43.9605565,44.5343833 C46.4490783,43.87505 49.051687,43.5382167 51.775513,43.5382167 C54.4422957,43.5382167 56.9949913,43.87505 59.4193391,44.5343833 C61.9078609,45.16505 63.9828174,46.08955 65.6442087,47.3078833 C68.2468174,49.2643833 69.551687,51.55055 69.551687,54.1663833 L69.551687,85.5707167 L65.1094261,85.5707167 Z" id="Fill-4" fill="#000000"></path>
                <path d="M105.096904,85.5685667 L105.096904,54.1642333 C105.096904,52.2794 104.120035,50.5880667 102.166296,49.0902333 C100.982643,48.1800667 99.4709913,47.4992333 97.6313391,47.0477333 C95.7988174,46.5604 93.8094261,46.3167333 91.6774261,46.3167333 C87.3563826,46.3167333 83.9480348,47.2054 81.459513,48.9827333 C79.4416,50.4519 78.4362087,52.1790667 78.4362087,54.1642333 L78.4362087,85.5685667 L73.9939478,85.5685667 L73.9939478,54.1642333 C73.9939478,51.5125667 75.2988174,49.2120667 77.9014261,47.2555667 C79.5057739,46.0730667 81.5165565,45.1629 83.9480348,44.5394 C86.4365565,43.8729 89.0391652,43.5432333 91.7701217,43.5432333 C94.4369043,43.5432333 96.9824696,43.8729 99.4068174,44.5394 C101.895339,45.1629 103.970296,46.0874 105.631687,47.3057333 C108.234296,49.2622333 109.539165,51.5484 109.539165,54.1642333 L109.539165,85.5685667 L105.096904,85.5685667 Z M96.2123826,85.5685667 L96.2123826,54.1642333 C96.2123826,53.5407333 95.7988174,52.9459 94.9645565,52.3869 C94.1944696,51.8279 93.103513,51.5484 91.6774261,51.5484 C90.4367304,51.5484 89.395687,51.8135667 88.5685565,52.3367333 C87.7414261,52.8599 87.3207304,53.4690667 87.3207304,54.1642333 L87.3207304,85.5685667 L82.8784696,85.5685667 L82.8784696,54.1642333 C82.8784696,52.8742333 83.5629913,51.7275667 84.9249043,50.7099 C86.6433391,49.4915667 88.9821217,48.8824 91.9483826,48.8824 C94.8504696,48.8824 97.0965565,49.4915667 98.7009043,50.7099 C100.005774,51.7275667 100.654643,52.8742333 100.654643,54.1642333 L100.654643,85.5685667 L96.2123826,85.5685667 Z" id="Fill-6" fill="#000000"></path>
                <path d="M118.427965,82.9527333 L131.754748,82.9527333 C134.956313,82.9527333 137.20953,82.8094 138.5144,82.5370667 C139.812139,82.2575667 141.031443,81.7630667 142.150922,81.0679 C143.284661,80.3727333 144.054748,79.5485667 144.468313,78.6097333 C144.881878,77.6279 145.088661,76.4597333 145.088661,75.0980667 L145.088661,54.1642333 L145.088661,53.2254 C145.088661,51.9640667 144.9104,50.9535667 144.553878,50.1867333 C144.197357,49.4199 143.370226,48.6674 142.065357,47.9364 C140.824661,47.2054 139.462748,46.7539 137.979617,46.5747333 C136.496487,46.4027333 134.42153,46.3167333 131.754748,46.3167333 L118.427965,46.3167333 L118.427965,82.9527333 Z M113.985704,85.5685667 L113.985704,43.7009 L131.754748,43.7009 C135.434052,43.7009 137.979617,43.7869 139.398574,43.9589 C141.887096,44.2742333 144.019096,44.9694 145.801704,46.0515667 C147.0424,46.8184 147.962226,47.7429 148.554052,48.8250667 C149.202922,49.8714 149.530922,51.6559 149.530922,54.1642333 L149.530922,75.0980667 C149.530922,77.1262333 149.352661,78.6097333 148.996139,79.5485667 C148.468487,81.0177333 147.306226,82.2575667 145.530748,83.2680667 C143.75527,84.2785667 141.680313,84.9379 139.313009,85.2532333 C137.708661,85.4610667 135.191617,85.5685667 131.754748,85.5685667 L113.985704,85.5685667 Z M135.312835,52.1790667 C135.013357,51.9999 134.599791,51.8637333 134.072139,51.7562333 C133.5944,51.6200667 132.824313,51.5484 131.754748,51.5484 L127.312487,51.5484 L127.312487,77.7210667 L131.754748,77.7210667 C132.646052,77.7210667 133.323443,77.6852333 133.801183,77.6135667 C134.335965,77.5060667 134.806574,77.3197333 135.22727,77.0402333 C135.640835,76.7607333 135.904661,76.4812333 136.025878,76.2017333 C136.139965,75.9222333 136.197009,75.5567333 136.197009,75.0980667 L136.197009,54.1642333 C136.197009,53.5049 136.139965,53.0677333 136.025878,52.8599 C135.961704,52.6449 135.7264,52.4227333 135.312835,52.1790667 L135.312835,52.1790667 Z M131.754748,48.9325667 C133.772661,48.9325667 135.191617,48.9827333 136.025878,49.0902333 C136.910052,49.1905667 137.801357,49.5274 138.68553,50.0792333 C139.576835,50.6095667 140.111617,51.1829 140.289878,51.8064 C140.525183,52.4012333 140.6464,53.1895667 140.6464,54.1642333 L140.6464,75.0980667 C140.6464,76.1157333 140.525183,76.9184 140.289878,77.5060667 C140.111617,78.0650667 139.576835,78.6097333 138.68553,79.1329 C137.801357,79.6560667 136.853009,79.9857333 135.847617,80.1290667 C134.89927,80.2652333 133.537357,80.3369 131.754748,80.3369 L122.870226,80.3369 L122.870226,48.9325667 L131.754748,48.9325667 Z" id="Fill-8" fill="#000000"></path>
                <path d="M198.495617,80.3870667 C195.59353,80.3870667 193.28327,79.7779 191.564835,78.5595667 C190.202922,77.5419 189.5184,76.3880667 189.5184,75.0980667 L189.5184,54.1642333 C189.5184,52.8025667 190.202922,51.6559 191.564835,50.7099 C193.219096,49.5632333 195.536487,48.9827333 198.495617,48.9827333 L207.294574,48.9827333 L207.294574,51.4982333 L198.495617,51.4982333 C197.133704,51.4982333 196.035617,51.7777333 195.208487,52.3295667 C194.374226,52.8599 193.960661,53.4690667 193.960661,54.1642333 L193.960661,75.0980667 C193.960661,75.8649 194.374226,76.4955667 195.208487,76.9829 C196.035617,77.4702333 197.133704,77.7210667 198.495617,77.7210667 L207.294574,77.7210667 L207.294574,80.3870667 L198.495617,80.3870667 Z M198.495617,85.5685667 C195.294052,85.5685667 192.6344,85.3249 190.49527,84.8375667 C188.427443,84.3144 186.438052,83.3684 184.541357,82.0139 C183.058226,80.9604 182.024313,79.9355667 181.432487,78.9179 C180.897704,77.8787333 180.633878,76.6030667 180.633878,75.0980667 L180.633878,54.1642333 C180.633878,52.7022333 180.897704,51.4624 181.432487,50.4519 C182.024313,49.4055667 183.058226,48.3377333 184.541357,47.2555667 C186.316835,45.9297333 188.334748,44.9694 190.587965,44.3817333 C192.898226,43.7869 195.536487,43.4930667 198.495617,43.4930667 L207.294574,43.4930667 L207.294574,46.3167333 L198.495617,46.3167333 C194.1104,46.3167333 190.645009,47.2054 188.099443,48.9827333 C186.972835,49.7854 186.174226,50.5737333 185.696487,51.3405667 C185.282922,52.1074 185.076139,53.0534 185.076139,54.1642333 L185.076139,75.0980667 C185.076139,76.2160667 185.282922,77.1620667 185.696487,77.9289 C186.110052,78.6957333 186.944313,79.5342333 188.185009,80.4372333 C189.489878,81.3115667 190.944487,81.9422333 192.541704,82.3220667 C194.203096,82.7090667 196.185357,82.9025667 198.495617,82.9025667 L207.294574,82.9025667 L207.294574,85.5685667 L198.495617,85.5685667 Z" id="Fill-10" fill="#000000"></path>
                <path d="M247.637148,75.10165 C247.637148,76.60665 247.373322,77.8393167 246.838539,78.8139833 C246.303757,79.7599833 245.241322,80.8278167 243.636974,82.0103167 C242.039757,83.1999833 239.993322,84.1173167 237.5048,84.7838167 C235.080452,85.4144833 232.499235,85.72265 229.775409,85.72265 C227.16567,85.72265 224.620104,85.4144833 222.131583,84.7838167 C219.700104,84.1173167 217.717843,83.22865 216.17767,82.1178167 C214.637496,80.9639833 213.575061,79.8674833 212.976104,78.8139833 C212.384278,77.7318167 212.09193,76.49915 212.09193,75.10165 L212.09193,54.1678167 C212.09193,51.51615 213.3968,49.2084833 215.999409,47.25915 C217.603757,46.0694833 219.614539,45.1664833 222.046017,44.5358167 C224.534539,43.8764833 227.137148,43.53965 229.868104,43.53965 C232.527757,43.53965 235.080452,43.8764833 237.5048,44.5358167 C239.993322,45.1664833 242.068278,46.0909833 243.72967,47.3093167 C246.332278,49.2658167 247.637148,51.5519833 247.637148,54.1678167 L247.637148,75.10165 Z M234.310365,75.10165 L234.310365,54.1678167 C234.310365,53.53715 233.88967,52.9423167 233.062539,52.3904833 C232.292452,51.8314833 231.194365,51.5519833 229.775409,51.5519833 C228.527583,51.5519833 227.49367,51.8099833 226.666539,52.33315 C225.832278,52.8563167 225.418713,53.47265 225.418713,54.1678167 L225.418713,75.10165 C225.418713,75.7968167 225.832278,76.4059833 226.666539,76.92915 C227.49367,77.4594833 228.527583,77.7174833 229.775409,77.7174833 C231.194365,77.7174833 232.292452,77.4379833 233.062539,76.8789833 C233.88967,76.3199833 234.310365,75.7323167 234.310365,75.10165 L234.310365,75.10165 Z M238.752626,75.10165 C238.752626,76.39165 238.096626,77.5454833 236.798887,78.5559833 C235.194539,79.7743167 232.941322,80.39065 230.039235,80.39065 C227.080104,80.39065 224.741322,79.7743167 223.022887,78.5559833 C221.660974,77.5454833 220.976452,76.39165 220.976452,75.10165 L220.976452,54.1678167 C220.976452,52.8778167 221.660974,51.7239833 223.022887,50.7134833 C224.741322,49.4879833 227.080104,48.8788167 230.039235,48.8788167 C232.941322,48.8788167 235.194539,49.4879833 236.798887,50.7134833 C238.096626,51.7239833 238.752626,52.8778167 238.752626,54.1678167 L238.752626,75.10165 Z M243.194887,75.10165 L243.194887,54.1678167 C243.194887,52.2829833 242.218017,50.59165 240.264278,49.08665 C239.073496,48.18365 237.568974,47.5028167 235.729322,47.04415 C233.88967,46.5568167 231.907409,46.31315 229.775409,46.31315 C225.447235,46.31315 222.046017,47.2018167 219.557496,48.9863167 C217.539583,50.4483167 216.534191,52.1754833 216.534191,54.1678167 L216.534191,75.10165 C216.534191,77.0868167 217.539583,78.8139833 219.557496,80.28315 C222.046017,82.0963167 225.447235,83.0064833 229.775409,83.0064833 C231.786191,83.0064833 233.747061,82.7628167 235.643757,82.2754833 C237.533322,81.7523167 239.016452,81.0858167 240.086017,80.28315 C241.205496,79.44465 242.011235,78.62765 242.481843,77.8249833 C242.959583,77.0223167 243.194887,76.11215 243.194887,75.10165 L243.194887,75.10165 Z" id="Fill-12" fill="#000000"></path>
                <path d="M265.409757,51.5498333 L265.409757,60.7088333 L269.852017,60.7088333 C270.921583,60.7088333 271.69167,60.6873333 272.162278,60.6515 C272.640017,60.587 273.053583,60.415 273.410104,60.1355 C273.82367,59.8201667 274.058974,59.5406667 274.116017,59.297 C274.237235,59.0533333 274.294278,58.652 274.294278,58.093 L274.294278,54.1656667 C274.294278,53.3988333 273.880713,52.7681667 273.053583,52.2808333 C272.226452,51.7935 271.156887,51.5498333 269.852017,51.5498333 L265.409757,51.5498333 Z M276.604539,50.1881667 C277.495843,50.7113333 278.059148,51.2703333 278.294452,51.8651667 C278.59393,52.4528333 278.736539,53.2268333 278.736539,54.1656667 L278.736539,58.093 C278.736539,59.1035 278.622452,59.9061667 278.387148,60.501 C278.208887,61.06 277.674104,61.5975 276.7828,62.1206667 C275.898626,62.6438333 274.950278,62.9735 273.937757,63.1168333 C272.989409,63.253 271.634626,63.3246667 269.852017,63.3246667 L260.967496,63.3246667 L260.967496,48.934 L269.852017,48.934 C271.456365,48.934 272.754104,49.02 273.766626,49.192 C274.772017,49.3353333 275.720365,49.665 276.604539,50.1881667 L276.604539,50.1881667 Z M283.449757,46.053 C285.225235,47.0635 286.416017,48.289 287.007843,49.7151667 C287.421409,50.7256667 287.628191,52.2091667 287.628191,54.1656667 L287.628191,58.093 L287.628191,59.7126667 C287.628191,60.1355 287.571148,60.6371667 287.44993,61.232 C287.328713,61.791 287.064887,62.4001667 286.651322,63.0666667 C286.2948,63.6901667 285.731496,64.2133333 284.961409,64.6361667 C286.736887,65.6108333 287.628191,66.9223333 287.628191,68.5563333 L287.628191,71.1721667 L287.628191,85.57 L283.18593,85.57 L283.18593,71.1721667 L283.18593,70.5486667 C283.18593,69.6743333 283.093235,68.9576667 282.914974,68.4058333 C282.800887,67.811 282.444365,67.1803333 281.852539,66.521 C281.260713,65.8545 280.340887,65.2453333 279.100191,64.6863333 C280.340887,64.1273333 281.317757,63.4321667 282.0308,62.5936667 C282.444365,62.1063333 282.743843,61.5616667 282.914974,60.974 C283.093235,60.3433333 283.18593,59.7843333 283.18593,59.297 L283.18593,58.093 L283.18593,54.1656667 C283.18593,52.7681667 282.979148,51.6358333 282.565583,50.7615 C282.144887,49.8943333 281.289235,49.0701667 279.984365,48.3033333 C278.679496,47.5365 277.232017,47.0133333 275.62767,46.7338333 C274.030452,46.4543333 272.105235,46.3181667 269.852017,46.311 L256.525235,46.311 L256.525235,85.57 L252.075843,85.57 L252.075843,43.6951667 L269.852017,43.6951667 C274.058974,43.6951667 277.025235,43.8886667 278.736539,44.2756667 C280.462104,44.6196667 282.0308,45.2145 283.449757,46.053 L283.449757,46.053 Z M260.967496,85.57 L260.967496,65.9405 L269.852017,65.9405 C272.048191,65.9405 273.588365,66.048 274.472539,66.2558333 C275.420887,66.4278333 276.255148,66.7575 276.961061,67.252 C277.731148,67.7035 278.208887,68.2266667 278.387148,68.8215 C278.622452,69.4163333 278.736539,70.1975 278.736539,71.1721667 L278.736539,85.57 L274.294278,85.57 L274.294278,71.1721667 C274.294278,70.6203333 274.237235,70.219 274.116017,69.9753333 C274.058974,69.7245 273.852191,69.5023333 273.49567,69.2945 C273.139148,69.0508333 272.697061,68.8716667 272.162278,68.7641667 C271.69167,68.628 270.921583,68.5563333 269.852017,68.5563333 L265.409757,68.5563333 L265.409757,85.57 L260.967496,85.57 Z" id="Fill-14" fill="#000000"></path>
                <g id="Group-18" transform="translate(291.217391, 42.999283)">
                    <mask id="mask-4" fill="white">
                        <use xlink:href="#path-3"></use>
                    </mask>
                    <g id="Clip-17"></g>
                    <path d="M22.1816174,9.17835 C21.8821391,9.00635 21.4685739,8.86301667 20.9409217,8.75551667 C20.4631826,8.61935 19.6930957,8.54768333 18.6235304,8.54768333 L14.1812696,8.54768333 L14.1812696,17.7066833 L18.6235304,17.7066833 C19.5148348,17.7066833 20.1922261,17.67085 20.6699652,17.60635 C21.2047478,17.49885 21.6753565,17.30535 22.0960522,17.0330167 C22.5096174,16.74635 22.7734435,16.46685 22.8946609,16.1945167 C23.0087478,15.90785 23.0729217,15.54235 23.0729217,15.09085 L23.0729217,11.1635167 C23.0729217,10.5041833 23.0087478,10.0670167 22.8946609,9.85918333 C22.830487,9.65135 22.5951826,9.42201667 22.1816174,9.17835 L22.1816174,9.17835 Z M18.6235304,5.93185 C20.6414435,5.93185 22.0604,5.98918333 22.8946609,6.08951667 C23.7788348,6.19701667 24.6701391,6.52668333 25.554313,7.08568333 C26.4456174,7.60885 26.9804,8.18218333 27.1586609,8.81285 C27.3939652,9.40768333 27.5151826,10.18885 27.5151826,11.1635167 L27.5151826,15.09085 C27.5151826,16.10135 27.3939652,16.9040167 27.1586609,17.49885 C26.9804,18.05785 26.4456174,18.59535 25.554313,19.1185167 C24.6701391,19.6416833 23.7217913,19.9785167 22.7164,20.1146833 C21.7680522,20.2580167 20.4061391,20.3225167 18.6235304,20.3225167 L9.7390087,20.3225167 L9.7390087,5.93185 L18.6235304,5.93185 Z M0.854486957,42.56785 L0.854486957,0.700183333 L18.6235304,0.700183333 C22.2957043,0.700183333 24.8484,0.786183333 26.2673565,0.958183333 C28.7558783,1.27351667 30.8878783,1.97585 32.670487,3.05801667 C33.9111826,3.82485 34.8310087,4.74935 35.4228348,5.83151667 C36.0717043,6.87785 36.3997043,8.65518333 36.3997043,11.1635167 L36.3997043,15.09085 C36.3997043,17.1190167 36.2214435,18.59535 35.8649217,19.54135 C35.3301391,21.00335 34.1750087,22.2431833 32.3995304,23.2536833 C30.6240522,24.27135 28.5490957,24.9306833 26.1817913,25.2460167 C24.5845739,25.45385 22.0604,25.56135 18.6235304,25.56135 L14.1812696,25.56135 L14.1812696,42.56785 L9.7390087,42.56785 L9.7390087,22.9455167 L18.6235304,22.9455167 C21.8250957,22.9455167 24.078313,22.8021833 25.3831826,22.5226833 C26.6809217,22.2431833 27.9002261,21.75585 29.0268348,21.0606833 C30.1534435,20.35835 30.9164,19.54135 31.3370957,18.59535 C31.7506609,17.6206833 31.9574435,16.4525167 31.9574435,15.09085 L31.9574435,11.1635167 L31.9574435,10.2246833 C31.9574435,8.97051667 31.7791826,7.95285 31.4226609,7.19318333 C31.0661391,6.41918333 30.2390087,5.67385 28.9341391,4.93568333 C27.6934435,4.20468333 26.3244,3.75318333 24.8484,3.57401667 C23.3652696,3.40201667 21.290313,3.31601667 18.6235304,3.31601667 L5.29674783,3.31601667 L5.29674783,42.56785 L0.854486957,42.56785 Z" id="Fill-16" fill="#000000" mask="url(#mask-4)"></path>
                </g>
                <path d="M176.446887,80.7661833 L167.562365,80.7661833 L167.562365,49.36185 L176.446887,49.36185 L176.446887,51.9776833 L172.004626,51.9776833 L172.004626,78.15035 L176.446887,78.15035 L176.446887,80.7661833 Z M154.228452,85.99785 L176.446887,85.99785 L176.446887,83.3820167 L154.228452,83.3820167 L154.228452,85.99785 Z M154.228452,49.36185 L163.120104,49.36185 L163.120104,80.7661833 L154.228452,80.7661833 L154.228452,78.15035 L158.670713,78.15035 L158.670713,51.9776833 L154.228452,51.9776833 L154.228452,49.36185 Z M154.228452,46.7460167 L176.446887,46.7460167 L176.446887,44.1301833 L154.228452,44.1301833 L154.228452,46.7460167 Z" id="Fill-19" fill="#000000"></path>
                <path d="M168.738887,39.1615333 C168.738887,39.1615333 173.124104,35.1697 171.07767,29.0565333 C167.576626,18.5932 153.087583,16.5578667 152.110713,13.6267 C151.718539,12.4657 152.602713,12.1073667 152.602713,12.1073667 C152.602713,12.1073667 146.049843,12.3582 147.197843,15.7767 C149.508104,22.6710333 165.886713,22.7355333 168.9528,31.9017 C170.286191,35.8935333 168.738887,39.1615333 168.738887,39.1615333" id="Fill-21" fill="#000000"></path>
                <path d="M162.073357,42.7197833 C162.073357,42.7197833 168.982748,39.80295 166.8864,33.5321167 C164.454922,26.27945 153.217357,24.04345 152.739617,22.62445 C152.525704,21.9722833 152.746748,21.6282833 152.746748,21.6282833 C152.746748,21.6282833 152.012313,21.01195 149.595096,21.2627833 C147.177878,21.5136167 145.06727,23.1261167 145.758922,25.1686167 C147.192139,29.4686167 161.367443,29.9846167 163.706226,36.9721167 C164.832835,40.34045 162.073357,42.7197833 162.073357,42.7197833" id="Fill-23" fill="#000000"></path>
                <path d="M164.212487,43.59985 C164.212487,43.59985 180.961878,39.6080167 176.034748,24.89485 C173.018574,15.8791833 162.394226,10.6045167 161.203443,7.02835 C160.782748,5.78851667 162.2944,4.55585 163.784661,4.40535 C164.43353,4.33368333 165.003965,4.59885 165.003965,4.59885 C165.003965,4.59885 167.007617,4.54868333 166.487096,2.99351667 C165.709878,0.66435 161.63127,-0.30315 157.909183,0.08385 C154.194226,0.47085 150.9784,3.21568333 152.190574,6.84201667 C154.529357,13.8366833 169.50327,17.7496833 173.025704,28.2631833 C176.441183,38.4685167 164.212487,43.59985 164.212487,43.59985" id="Fill-25" fill="#000000"></path>
                <path d="M170.495826,42.1091833 C176.585217,40.69735 179.672696,38.6906833 181.619304,33.5665167 C183.116696,29.62485 182.011478,26.5216833 181.06313,22.76635 C179.986435,18.5380167 174.374783,12.8620167 175.030783,11.0631833 C175.451478,9.91651667 176.321391,10.3321833 176.321391,10.3321833 C176.321391,10.3321833 172.563652,8.36135 170.139304,8.86301667 C164.577565,10.01685 174.973739,16.4955167 176.585217,21.9636833 C177.925739,26.5216833 179.886609,29.5316833 178.339304,34.0251833 C176.906087,38.18185 174.602957,40.5611833 170.495826,42.1091833" id="Fill-27" fill="#000000"></path>
            </g>
        </g>
    </g>
</svg>